<svg width="1440" height="642" viewBox="0 0 1440 642" fill="none" xmlns="http://www.w3.org/2000/svg">
<rect width="1440" height="642" fill="url(#paint0_linear_0_2417)"/>
<path d="M1226 510.64H1357.45C1357.45 510.64 1363.38 479.871 1362.79 477.939C1362.2 476.006 1350.91 456.528 1350.91 456.528L1347.35 434.049L1327.17 401.349L1324.49 363.257L1310.55 348L1293.91 359.901L1283.83 410.758L1282.34 410.046L1264.24 401.349L1242.74 450.424H1233.07L1230.84 469.394L1226 510.64Z" fill="#F9E9DE" fill-opacity="0.16"/>
<g opacity="0.91">
<path d="M1259.77 510.552H1404.49C1404.49 510.552 1411.02 500.893 1410.37 499.712C1409.72 498.53 1397.29 486.622 1397.29 486.622L1393.37 472.879L1371.15 452.885L1368.21 429.594L1352.86 420.266L1334.54 427.543L1323.44 458.638L1321.8 458.203L1301.87 452.885L1278.21 482.892H1267.56L1265.11 494.49L1259.77 510.552Z" fill="#EEDECE"/>
<path d="M1350.9 452.138L1333.07 473.127L1350.07 490.509L1377.04 469.988L1391.1 475.74L1385.7 491.008L1374.43 497.757L1397.29 508.391L1410.37 499.716C1409.72 498.534 1397.29 486.626 1397.29 486.626L1393.37 472.882L1371.15 452.889L1368.21 429.598L1352.86 420.27L1350.9 452.138Z" fill="#F9E9DE"/>
<path d="M1265.11 494.489L1281.93 507.082L1292.11 491.285L1286.5 482.984L1292.11 471.074L1310.15 479.625L1323.44 460.689L1321.8 458.201L1301.87 452.884L1278.21 482.89H1267.56L1265.11 494.489Z" fill="#FFF0E5"/>
</g>
<path d="M1410.72 476.559C1411.31 479.108 1411.18 481.653 1410.45 483.981C1410.22 484.733 1409.92 485.461 1409.56 486.162C1408.78 487.716 1407.71 489.119 1406.41 490.297C1406.21 490.487 1406 490.667 1405.78 490.845C1405.1 491.391 1404.38 491.873 1403.6 492.287C1402.75 492.751 1401.84 493.128 1400.88 493.405C1400.61 493.488 1400.32 493.564 1400.04 493.63C1392.36 495.403 1384.7 490.634 1382.92 482.981C1382.28 480.243 1382.48 477.511 1383.36 475.046C1383.71 474.065 1384.16 473.129 1384.71 472.252C1385.09 471.647 1385.5 471.068 1385.97 470.535C1386.22 470.234 1386.49 469.95 1386.76 469.678C1387.89 468.563 1389.2 467.625 1390.68 466.928C1391.4 466.585 1392.16 466.297 1392.95 466.079C1393.16 466.015 1393.38 465.959 1393.6 465.909C1401.27 464.136 1408.94 468.905 1410.72 476.559Z" fill="#FCD554"/>
<path d="M1396.82 492.289C1403.75 492.289 1409.37 486.684 1409.37 479.769C1409.37 472.854 1403.75 467.249 1396.82 467.249C1389.88 467.249 1384.26 472.854 1384.26 479.769C1384.26 486.684 1389.88 492.289 1396.82 492.289Z" fill="#FF8243"/>
<path d="M1405.23 488.154C1409.87 483.523 1409.87 476.015 1405.23 471.385C1400.58 466.754 1393.05 466.754 1388.41 471.385C1383.76 476.015 1383.76 483.523 1388.41 488.154C1393.05 492.785 1400.58 492.785 1405.23 488.154Z" fill="#FFA942"/>
<path d="M1401.02 479.36C1400.66 479.065 1400.22 478.892 1399.71 478.837C1399.6 478.825 1399.56 478.691 1399.64 478.622C1400 478.321 1400.26 477.984 1400.41 477.607C1400.6 477.148 1400.64 476.673 1400.52 476.182C1400.3 475.22 1399.79 474.578 1399.01 474.254C1398.39 474.001 1397.62 473.942 1396.7 474.077C1396.64 474.086 1396.58 474.046 1396.57 473.985L1396.2 472.442C1396.19 472.377 1396.13 472.336 1396.06 472.352L1395.07 472.59C1395.01 472.605 1394.97 472.671 1394.98 472.737L1395.33 474.244C1395.35 474.309 1395.31 474.375 1395.25 474.39L1394.49 474.573C1394.42 474.588 1394.36 474.547 1394.35 474.483L1393.99 472.976C1393.98 472.91 1393.91 472.87 1393.85 472.886L1392.86 473.124C1392.79 473.139 1392.75 473.204 1392.77 473.27L1393.12 474.777C1393.14 474.843 1393.1 474.908 1393.03 474.923L1390.09 475.631C1390.03 475.646 1389.99 475.712 1390 475.777L1390.28 476.947C1390.29 477.013 1390.36 477.053 1390.42 477.037L1392.2 476.608C1392.26 476.593 1392.33 476.634 1392.34 476.698L1394.14 484.361C1394.15 484.426 1394.11 484.492 1394.05 484.507L1392.27 484.936C1392.21 484.951 1392.17 485.016 1392.18 485.082L1392.46 486.251C1392.47 486.317 1392.54 486.357 1392.6 486.341L1395.54 485.633C1395.61 485.618 1395.67 485.658 1395.69 485.723L1396.04 487.256C1396.06 487.321 1396.12 487.361 1396.19 487.345L1397.18 487.107C1397.24 487.092 1397.28 487.027 1397.27 486.961L1396.91 485.429C1396.89 485.363 1396.93 485.298 1397 485.282L1397.75 485.1C1397.82 485.085 1397.88 485.125 1397.9 485.19L1398.26 486.722C1398.27 486.788 1398.34 486.828 1398.4 486.812L1399.39 486.574C1399.46 486.559 1399.5 486.493 1399.48 486.428L1399.12 484.876C1399.1 484.814 1399.14 484.751 1399.2 484.732C1400.2 484.419 1400.93 483.964 1401.41 483.365C1401.97 482.66 1402.13 481.805 1401.9 480.8C1401.75 480.194 1401.46 479.713 1401.02 479.36ZM1398.58 476.76C1398.69 477.24 1398.6 477.654 1398.32 478C1398.03 478.346 1397.58 478.593 1396.96 478.741L1395.14 479.18C1395.08 479.196 1395.01 479.155 1395 479.091L1394.35 476.318C1394.33 476.252 1394.37 476.187 1394.43 476.172L1396.24 475.736C1396.92 475.573 1397.45 475.57 1397.82 475.728C1398.2 475.886 1398.45 476.23 1398.58 476.76ZM1399.68 482.609C1399.4 482.984 1398.95 483.245 1398.33 483.394L1396.24 483.895C1396.18 483.91 1396.11 483.87 1396.1 483.805L1395.37 480.695C1395.35 480.629 1395.39 480.564 1395.46 480.549L1397.71 480.007C1398.92 479.74 1399.66 480.162 1399.92 481.277C1400.04 481.792 1399.96 482.235 1399.68 482.609Z" fill="#FFEBD3"/>
<g opacity="0.75">
<path d="M1408.15 483.371C1406.91 487.218 1403.74 490.341 1399.5 491.32C1393.1 492.798 1386.72 488.826 1385.23 482.445C1384.2 477.994 1385.82 473.552 1389.07 470.773C1388.44 472.739 1388.32 474.895 1388.82 477.05C1390.3 483.431 1396.69 487.403 1403.09 485.925C1405.03 485.478 1406.74 484.582 1408.15 483.371Z" fill="#F5702D" fill-opacity="0.49"/>
</g>
<path d="M1411.65 505.682V509.787C1411.65 510.255 1411.28 510.634 1410.83 510.634H1376.85C1376.4 510.634 1376.03 510.255 1376.03 509.787V505.682C1376.03 505.214 1376.4 504.835 1376.85 504.835H1410.83C1411.28 504.835 1411.65 505.214 1411.65 505.682Z" fill="#FFC84A"/>
<g opacity="0.8">
<path d="M1411.65 505.735H1376.03V509.544H1411.65V505.735Z" fill="#FF884D"/>
</g>
<g opacity="0.8">
<path d="M1379.35 505.735H1378.33V509.543H1379.35V505.735Z" fill="#FF5C50"/>
<path d="M1382.67 505.735H1381.64V509.543H1382.67V505.735Z" fill="#FF5C50"/>
<path d="M1385.99 505.735H1384.96V509.543H1385.99V505.735Z" fill="#FF5C50"/>
<path d="M1389.31 505.735H1388.28V509.543H1389.31V505.735Z" fill="#FF5C50"/>
<path d="M1392.62 505.735H1391.6V509.543H1392.62V505.735Z" fill="#FF5C50"/>
<path d="M1395.94 505.735H1394.91V509.543H1395.94V505.735Z" fill="#FF5C50"/>
<path d="M1399.26 505.735H1398.23V509.543H1399.26V505.735Z" fill="#FF5C50"/>
<path d="M1402.58 505.735H1401.55V509.543H1402.58V505.735Z" fill="#FF5C50"/>
<path d="M1405.89 505.735H1404.87V509.543H1405.89V505.735Z" fill="#FF5C50"/>
<path d="M1409.21 505.735H1408.18V509.543H1409.21V505.735Z" fill="#FF5C50"/>
</g>
<path d="M1416.55 499.881V503.986C1416.55 504.454 1416.19 504.833 1415.73 504.833H1381.76C1381.3 504.833 1380.94 504.454 1380.94 503.986V499.881C1380.94 499.413 1381.3 499.034 1381.76 499.034H1415.73C1416.19 499.034 1416.55 499.413 1416.55 499.881Z" fill="#FFE36C"/>
<path d="M1416.55 499.933H1380.94V503.742H1416.55V499.933Z" fill="#FFC84A"/>
<g opacity="0.8">
<path d="M1384.26 499.934H1383.23V503.742H1384.26V499.934Z" fill="#FF884D"/>
<path d="M1387.58 499.934H1386.55V503.742H1387.58V499.934Z" fill="#FF884D"/>
<path d="M1390.89 499.934H1389.87V503.742H1390.89V499.934Z" fill="#FF884D"/>
<path d="M1394.21 499.934H1393.18V503.742H1394.21V499.934Z" fill="#FF884D"/>
<path d="M1397.53 499.934H1396.5V503.742H1397.53V499.934Z" fill="#FF884D"/>
<path d="M1400.85 499.934H1399.82V503.742H1400.85V499.934Z" fill="#FF884D"/>
<path d="M1404.16 499.934H1403.14V503.742H1404.16V499.934Z" fill="#FF884D"/>
<path d="M1407.48 499.934H1406.45V503.742H1407.48V499.934Z" fill="#FF884D"/>
<path d="M1410.8 499.934H1409.77V503.742H1410.8V499.934Z" fill="#FF884D"/>
<path d="M1414.12 499.934H1413.09V503.742H1414.12V499.934Z" fill="#FF884D"/>
</g>
<g opacity="0.54">
<path d="M1398.86 499.933L1397.01 503.742H1393.82L1395.82 499.933H1398.86Z" fill="#FFF2BB"/>
<path d="M1386.99 499.933L1385.17 503.742H1383.74L1385.5 499.933H1386.99Z" fill="#FFF2BB"/>
<path d="M1407.87 499.933L1405.49 503.742H1400.13L1402.66 499.933H1407.87Z" fill="#FFF2BB"/>
</g>
<path d="M1410.27 494.839V498.944C1410.27 499.412 1409.9 499.792 1409.45 499.792H1375.47C1375.02 499.792 1374.65 499.412 1374.65 498.944V494.839C1374.65 494.372 1375.02 493.992 1375.47 493.992H1409.45C1409.9 493.992 1410.27 494.372 1410.27 494.839Z" fill="#FFC84A"/>
<g opacity="0.8">
<path d="M1410.27 494.893H1374.65V498.701H1410.27V494.893Z" fill="#FF884D"/>
</g>
<g opacity="0.8">
<path d="M1377.97 494.893H1376.95V498.7H1377.97V494.893Z" fill="#FF5C50"/>
<path d="M1381.29 494.893H1380.26V498.7H1381.29V494.893Z" fill="#FF5C50"/>
<path d="M1384.61 494.893H1383.58V498.7H1384.61V494.893Z" fill="#FF5C50"/>
<path d="M1387.93 494.893H1386.9V498.7H1387.93V494.893Z" fill="#FF5C50"/>
<path d="M1391.25 494.893H1390.22V498.7H1391.25V494.893Z" fill="#FF5C50"/>
<path d="M1394.56 494.893H1393.54V498.7H1394.56V494.893Z" fill="#FF5C50"/>
<path d="M1397.88 494.893H1396.85V498.7H1397.88V494.893Z" fill="#FF5C50"/>
<path d="M1401.2 494.893H1400.17V498.7H1401.2V494.893Z" fill="#FF5C50"/>
<path d="M1404.52 494.893H1403.49V498.7H1404.52V494.893Z" fill="#FF5C50"/>
<path d="M1407.83 494.893H1406.81V498.7H1407.83V494.893Z" fill="#FF5C50"/>
</g>
<path d="M1390.66 493.561C1391.25 496.11 1391.11 498.656 1390.38 500.984C1390.16 501.735 1389.86 502.463 1389.5 503.164C1388.72 504.719 1387.65 506.121 1386.35 507.299C1386.15 507.489 1385.93 507.669 1385.72 507.847C1385.04 508.393 1384.31 508.876 1383.53 509.289C1382.69 509.753 1381.78 510.13 1380.82 510.407C1380.55 510.49 1380.26 510.567 1379.98 510.632C1372.3 512.405 1364.64 507.637 1362.86 499.983C1362.22 497.245 1362.42 494.513 1363.3 492.049C1363.65 491.067 1364.1 490.131 1364.65 489.254C1365.02 488.65 1365.44 488.071 1365.91 487.538C1366.16 487.237 1366.42 486.952 1366.7 486.681C1367.82 485.565 1369.14 484.627 1370.62 483.931C1371.34 483.587 1372.1 483.3 1372.89 483.081C1373.1 483.017 1373.32 482.961 1373.54 482.912C1381.21 481.138 1388.88 485.907 1390.66 493.561Z" fill="#FCD554"/>
<path d="M1385.63 505.624C1390.54 500.735 1390.54 492.807 1385.63 487.918C1380.73 483.029 1372.78 483.029 1367.88 487.918C1362.97 492.807 1362.97 500.735 1367.88 505.624C1372.78 510.513 1380.73 510.513 1385.63 505.624Z" fill="#FF8243"/>
<path d="M1385.17 505.156C1389.81 500.525 1389.81 493.017 1385.17 488.386C1380.52 483.756 1372.99 483.756 1368.35 488.386C1363.7 493.017 1363.7 500.525 1368.35 505.156C1372.99 509.786 1380.52 509.786 1385.17 505.156Z" fill="#FFA942"/>
<path d="M1380.72 497.974C1380.44 497.595 1380.06 497.314 1379.58 497.128C1379.48 497.089 1379.48 496.95 1379.57 496.904C1380 496.706 1380.33 496.446 1380.58 496.123C1380.88 495.728 1381.04 495.279 1381.06 494.775C1381.09 493.788 1380.76 493.036 1380.09 492.52C1379.56 492.116 1378.83 491.861 1377.91 491.752C1377.85 491.745 1377.8 491.691 1377.8 491.628L1377.85 490.045C1377.85 489.978 1377.8 489.922 1377.74 489.921L1376.72 489.894C1376.65 489.892 1376.6 489.945 1376.59 490.013L1376.54 491.56C1376.54 491.627 1376.49 491.68 1376.42 491.678L1375.64 491.659C1375.58 491.657 1375.52 491.601 1375.53 491.535L1375.58 489.987C1375.58 489.92 1375.53 489.865 1375.46 489.863L1374.44 489.837C1374.38 489.835 1374.32 489.888 1374.32 489.955L1374.27 491.503C1374.27 491.57 1374.21 491.623 1374.15 491.621L1371.12 491.543C1371.06 491.541 1371 491.594 1371 491.662L1370.96 492.862C1370.96 492.929 1371.01 492.985 1371.08 492.986L1372.91 493.033C1372.97 493.035 1373.02 493.09 1373.02 493.157L1372.77 501.023C1372.77 501.09 1372.71 501.143 1372.65 501.141L1370.82 501.094C1370.75 501.092 1370.7 501.145 1370.69 501.213L1370.66 502.413C1370.65 502.48 1370.71 502.536 1370.77 502.537L1373.8 502.615C1373.86 502.617 1373.92 502.673 1373.91 502.739L1373.86 504.312C1373.86 504.379 1373.91 504.435 1373.98 504.436L1375 504.463C1375.06 504.465 1375.12 504.412 1375.12 504.344L1375.17 502.771C1375.17 502.704 1375.23 502.651 1375.29 502.653L1376.07 502.672C1376.14 502.674 1376.19 502.73 1376.19 502.796L1376.14 504.37C1376.14 504.437 1376.19 504.492 1376.25 504.494L1377.27 504.52C1377.34 504.522 1377.39 504.469 1377.4 504.402L1377.45 502.809C1377.45 502.745 1377.5 502.694 1377.56 502.691C1378.61 502.647 1379.44 502.397 1380.05 501.942C1380.77 501.406 1381.15 500.622 1381.19 499.59C1381.2 498.968 1381.05 498.429 1380.72 497.974ZM1379.02 494.829C1379.01 495.322 1378.82 495.699 1378.45 495.96C1378.09 496.22 1377.59 496.342 1376.96 496.326L1375.08 496.278C1375.01 496.276 1374.96 496.22 1374.96 496.154L1375.05 493.308C1375.06 493.24 1375.11 493.187 1375.18 493.189L1377.04 493.237C1377.73 493.254 1378.24 493.388 1378.57 493.638C1378.89 493.888 1379.04 494.285 1379.02 494.829ZM1378.58 500.765C1378.21 501.054 1377.7 501.189 1377.07 501.173L1374.92 501.117C1374.86 501.115 1374.81 501.06 1374.81 500.993L1374.91 497.8C1374.91 497.733 1374.97 497.68 1375.03 497.682L1377.34 497.741C1378.59 497.797 1379.19 498.397 1379.15 499.54C1379.14 500.069 1378.95 500.477 1378.58 500.765Z" fill="#FFEBD3"/>
<g opacity="0.75">
<path d="M1388.09 500.373C1386.85 504.22 1383.68 507.343 1379.44 508.322C1373.04 509.8 1366.66 505.828 1365.17 499.447C1364.14 494.997 1365.76 490.554 1369.01 487.775C1368.38 489.741 1368.26 491.897 1368.76 494.053C1370.24 500.433 1376.63 504.405 1383.03 502.927C1384.97 502.479 1386.68 501.584 1388.09 500.373Z" fill="#FF8243" fill-opacity="0.45"/>
</g>
<path d="M342 524.64H116.863C116.863 524.64 106.704 471.94 107.71 468.631C108.716 465.32 128.059 431.959 128.059 431.959L134.161 393.457L168.724 337.449L173.3 272.207L197.187 246.074L225.678 266.457L242.948 353.565L245.509 352.345L276.505 337.449L313.325 421.504H329.889L333.702 453.995L342 524.64Z" fill="#F9E9DE" fill-opacity="0.16"/>
<g opacity="0.91">
<path d="M284.153 524.488H36.2894C36.2894 524.488 25.1061 507.944 26.2131 505.922C27.32 503.898 48.6145 483.502 48.6145 483.502L55.3321 459.962L93.3858 425.718L98.4224 385.826L124.719 369.849L156.086 382.312L175.097 435.571L177.92 434.826L212.044 425.718L252.583 477.112H270.822L275.019 496.978L284.153 524.488Z" fill="#EEDECE"/>
<path d="M128.081 424.438L158.609 460.388L129.49 490.16L83.3093 455.011L59.2269 464.863L68.4644 491.015L87.7751 502.573L48.6144 520.787L26.213 505.929C27.3199 503.904 48.6144 483.509 48.6144 483.509L55.3319 459.969L93.3857 425.725L98.4223 385.832L124.719 369.855L128.081 424.438Z" fill="#F9E9DE"/>
<path d="M275.019 496.975L246.203 518.543L228.772 491.487L238.375 477.27L228.772 456.871L197.871 471.517L175.101 439.084L177.92 434.823L212.044 425.715L252.583 477.109H270.822L275.019 496.975Z" fill="#FFF0E5"/>
</g>
<path d="M586 341.026C584.725 325.638 571.842 313.554 556.115 313.554C553.941 313.554 551.816 313.794 549.772 314.241C548.53 299.54 536.187 287.983 521.147 287.983C508.869 287.983 498.39 295.677 494.287 306.499C491.426 305.254 488.254 304.552 484.935 304.552C475.617 304.552 467.574 309.995 463.813 317.88C461.378 317.274 458.827 316.938 456.212 316.938C441.465 316.938 429.123 327.234 426 341.026H586Z" fill="white"/>
<g style="mix-blend-mode:multiply">
<g opacity="0.24">
<path d="M901.734 256.279C901.257 258.66 900.125 260.793 898.544 262.547C898.043 263.115 897.485 263.64 896.887 264.123C895.566 265.195 894.049 266.042 892.411 266.622C892.152 266.715 891.888 266.801 891.623 266.881C890.799 267.126 889.952 267.298 889.088 267.396C888.14 267.512 887.173 267.536 886.202 267.457C885.92 267.438 885.638 267.41 885.355 267.372C877.744 266.352 872.737 259.735 874.171 252.591C874.683 250.036 875.946 247.762 877.718 245.943C878.415 245.216 879.193 244.563 880.035 243.995C880.616 243.601 881.223 243.245 881.853 242.943C882.198 242.769 882.549 242.613 882.906 242.47C884.359 241.885 885.918 241.518 887.52 241.411C888.303 241.354 889.102 241.361 889.902 241.436C890.12 241.452 890.335 241.474 890.55 241.503C898.162 242.516 903.168 249.135 901.734 256.279Z" fill="#C4AD96"/>
<g opacity="0.53">
<path d="M894.835 263.521C900.615 259.782 902.217 252.678 898.414 247.653C894.611 242.628 886.843 241.586 881.063 245.325C875.283 249.064 873.681 256.168 877.484 261.193C881.287 266.218 889.055 267.26 894.835 263.521Z" fill="white"/>
</g>
<path d="M884.908 265.102C891.112 266.424 897.509 262.719 899.195 256.825C900.881 250.932 897.219 245.082 891.014 243.759C884.81 242.437 878.414 246.142 876.727 252.036C875.041 257.929 878.704 263.779 884.908 265.102Z" fill="#D1B08F"/>
<path d="M891.723 262.903C888.901 261.65 886.85 259.284 886.155 256.457L883.596 246.037C886.369 247.29 888.389 249.622 889.089 252.41C889.089 252.41 889.089 252.41 889.089 252.41L891.723 262.903Z" fill="white" stroke="#CEAE90" stroke-width="0.7"/>
<path d="M897.094 251.089L887.184 256.84C884.494 258.401 881.202 258.766 878.228 257.849L888.247 252.094C890.91 250.565 894.153 250.204 897.094 251.089Z" fill="white" stroke="#CEAE90" stroke-width="0.7"/>
<path d="M897.092 251.103L890.083 255.174C889.26 255.017 888.443 254.791 887.639 254.49C886.834 254.188 886.079 253.826 885.375 253.41L883.564 246.035C884.751 246.572 885.798 247.309 886.667 248.193L886.933 247.954C886.935 247.955 886.936 247.956 886.937 247.958C886.939 247.959 886.94 247.96 886.941 247.961C887.331 248.359 887.686 248.786 888 249.237M897.092 251.103L886.662 248.189C886.666 248.193 886.67 248.196 886.672 248.199L886.679 248.205L886.68 248.206M897.092 251.103C895.844 250.729 894.542 250.58 893.25 250.647M897.092 251.103L893.25 250.647M888 249.237L887.693 249.425L887.693 249.426L887.694 249.428L887.695 249.43M888 249.237L887.699 249.435C887.698 249.434 887.697 249.432 887.695 249.43M888 249.237C888.001 249.239 888.002 249.24 888.003 249.241C888.006 249.246 888.01 249.252 888.014 249.258M887.695 249.43C887.394 248.997 887.053 248.588 886.68 248.206M887.695 249.43L887.7 249.438C887.704 249.443 887.709 249.451 887.716 249.461M886.68 248.206L886.686 248.211C886.687 248.212 886.685 248.211 886.684 248.209L886.679 248.205L886.674 248.2L886.67 248.196L886.67 248.196L886.674 248.2C886.676 248.202 886.678 248.204 886.68 248.206ZM887.716 249.461C887.715 249.459 887.714 249.457 887.712 249.455L888.014 249.258M887.716 249.461C888.024 249.906 888.293 250.372 888.516 250.859L888.516 250.859L888.52 250.867C888.526 250.879 888.526 250.881 888.528 250.885C888.53 250.89 888.532 250.899 888.548 250.933L888.549 250.935C888.621 251.096 888.69 251.26 888.753 251.424L888.879 251.758L889.228 251.603C889.393 251.53 889.559 251.462 889.728 251.396M887.716 249.461C887.719 249.465 887.723 249.469 887.726 249.473L888.014 249.258M888.014 249.258C888.333 249.718 888.613 250.203 888.845 250.711C888.853 250.726 888.859 250.742 888.866 250.757C888.87 250.767 888.874 250.777 888.878 250.787C888.908 250.852 888.936 250.916 888.964 250.982C888.96 250.983 888.956 250.985 888.952 250.987L889.09 251.295L889.427 251.166C889.426 251.162 889.424 251.158 889.423 251.154C889.485 251.129 889.548 251.104 889.61 251.08M889.728 251.396C889.726 251.397 889.724 251.397 889.723 251.398L889.61 251.08M889.728 251.396C889.754 251.387 889.778 251.377 889.795 251.37L889.797 251.369C889.818 251.36 889.828 251.356 889.837 251.353L889.837 251.353L889.842 251.351C890.091 251.257 890.345 251.173 890.602 251.097M889.728 251.396C889.729 251.396 889.73 251.395 889.731 251.395L889.61 251.08M889.61 251.08C889.63 251.073 889.649 251.065 889.668 251.057C889.687 251.049 889.706 251.041 889.725 251.034C889.985 250.937 890.248 250.849 890.513 250.771M890.602 251.097C890.601 251.097 890.6 251.098 890.599 251.098L890.513 250.771M890.602 251.097C890.618 251.092 890.635 251.088 890.654 251.083L890.655 251.083C890.674 251.077 890.695 251.072 890.717 251.066L890.718 251.065C890.95 251 891.185 250.941 891.421 250.89M890.602 251.097C890.603 251.097 890.604 251.096 890.605 251.096L890.513 250.771M890.513 250.771C890.533 250.765 890.553 250.76 890.573 250.755C890.592 250.749 890.612 250.744 890.632 250.739C890.873 250.67 891.118 250.609 891.364 250.556M891.421 250.89C891.418 250.89 891.416 250.891 891.413 250.891L891.364 250.556M891.421 250.89C891.445 250.885 891.468 250.88 891.484 250.877C891.487 250.876 891.49 250.875 891.493 250.874C891.508 250.871 891.517 250.869 891.526 250.867L891.526 250.867L891.528 250.867C892.077 250.753 892.634 250.682 893.197 250.65L893.197 250.65L893.203 250.649L893.222 250.648C893.229 250.648 893.239 250.647 893.25 250.647M891.421 250.89C891.423 250.889 891.425 250.889 891.427 250.889L891.364 250.556M891.364 250.556C891.384 250.552 891.405 250.548 891.425 250.543C891.439 250.54 891.454 250.536 891.468 250.534C892.037 250.416 892.612 250.342 893.192 250.309C893.201 250.309 893.21 250.308 893.218 250.308C893.227 250.307 893.236 250.307 893.244 250.306M893.25 250.647C893.249 250.647 893.248 250.647 893.246 250.647L893.244 250.306M893.25 250.647C893.251 250.647 893.253 250.646 893.254 250.646L893.244 250.306M893.25 250.647L893.244 250.306" fill="white" stroke="#CEAE90" stroke-width="0.7"/>
</g>
<g opacity="0.24">
<path d="M1029.55 307.157C1029.41 309.565 1028.59 311.806 1027.26 313.726C1026.84 314.346 1026.36 314.93 1025.84 315.477C1024.67 316.692 1023.28 317.708 1021.74 318.473C1021.49 318.596 1021.24 318.712 1020.99 318.823C1020.2 319.161 1019.38 319.431 1018.54 319.629C1017.61 319.856 1016.65 319.993 1015.68 320.03C1015.39 320.044 1015.11 320.049 1014.82 320.045C1007.1 319.933 1001.18 313.984 1001.6 306.757C1001.75 304.172 1002.68 301.776 1004.19 299.771C1004.78 298.971 1005.46 298.233 1006.22 297.573C1006.74 297.116 1007.3 296.692 1007.88 296.32C1008.2 296.107 1008.53 295.912 1008.86 295.729C1010.23 294.979 1011.72 294.433 1013.3 294.139C1014.07 293.991 1014.87 293.903 1015.68 293.883C1015.9 293.874 1016.11 293.87 1016.33 293.873C1024.05 293.979 1029.97 299.929 1029.55 307.157Z" fill="#C4AD96"/>
<g opacity="0.53">
<path d="M1023.71 315.127C1028.94 310.757 1029.53 303.551 1025.03 299.032C1020.53 294.513 1012.65 294.393 1007.43 298.763C1002.21 303.133 1001.62 310.339 1006.11 314.858C1010.61 319.377 1018.49 319.497 1023.71 315.127Z" fill="white"/>
</g>
<path d="M1014.04 317.858C1020.4 318.428 1026.25 314.008 1027.1 307.984C1027.95 301.961 1023.48 296.615 1017.13 296.045C1010.77 295.474 1004.92 299.895 1004.07 305.918C1003.22 311.942 1007.68 317.287 1014.04 317.858Z" fill="#D1B08F"/>
<path d="M1020.26 278.268C1020.1 277.832 1019.82 277.466 1019.41 277.169C1019.32 277.107 1019.36 276.97 1019.46 276.949C1019.92 276.859 1020.31 276.687 1020.64 276.432C1021.03 276.121 1021.31 275.723 1021.47 275.236C1021.77 274.283 1021.67 273.474 1021.16 272.807C1020.77 272.286 1020.15 271.862 1019.3 271.532C1019.24 271.51 1019.21 271.447 1019.23 271.386L1019.71 269.857C1019.73 269.792 1019.7 269.725 1019.64 269.708L1018.67 269.436C1018.61 269.418 1018.54 269.456 1018.52 269.521L1018.05 271.015C1018.03 271.08 1017.96 271.118 1017.9 271.101L1017.16 270.893C1017.1 270.875 1017.06 270.808 1017.09 270.744L1017.56 269.25C1017.58 269.186 1017.55 269.119 1017.48 269.102L1016.52 268.829C1016.46 268.811 1016.39 268.849 1016.37 268.915L1015.89 270.409C1015.87 270.474 1015.81 270.512 1015.74 270.494L1012.88 269.686C1012.82 269.668 1012.75 269.706 1012.73 269.772L1012.36 270.931C1012.34 270.996 1012.38 271.062 1012.44 271.08L1014.17 271.568C1014.23 271.586 1014.27 271.653 1014.25 271.716L1011.84 279.312C1011.82 279.377 1011.76 279.415 1011.69 279.397L1009.96 278.909C1009.9 278.891 1009.83 278.929 1009.81 278.994L1009.44 280.153C1009.42 280.218 1009.46 280.285 1009.52 280.302L1012.38 281.11C1012.45 281.128 1012.48 281.195 1012.46 281.258L1011.98 282.778C1011.96 282.842 1011.99 282.909 1012.06 282.926L1013.02 283.199C1013.08 283.217 1013.15 283.179 1013.17 283.113L1013.65 281.594C1013.67 281.529 1013.74 281.491 1013.8 281.509L1014.54 281.716C1014.6 281.734 1014.63 281.801 1014.61 281.865L1014.13 283.384C1014.11 283.449 1014.15 283.516 1014.21 283.533L1015.17 283.805C1015.24 283.823 1015.3 283.785 1015.32 283.72L1015.81 282.182C1015.83 282.12 1015.89 282.083 1015.95 282.095C1016.96 282.305 1017.82 282.263 1018.53 281.969C1019.37 281.622 1019.95 280.951 1020.26 279.954C1020.45 279.353 1020.45 278.79 1020.26 278.268ZM1019.51 274.797C1019.36 275.273 1019.08 275.594 1018.66 275.759C1018.24 275.924 1017.73 275.922 1017.13 275.753L1015.35 275.252C1015.29 275.234 1015.25 275.167 1015.27 275.104L1016.15 272.355C1016.17 272.29 1016.23 272.252 1016.3 272.27L1018.06 272.766C1018.72 272.952 1019.17 273.206 1019.4 273.527C1019.64 273.849 1019.68 274.272 1019.51 274.797ZM1017.45 280.467C1017.02 280.658 1016.5 280.668 1015.9 280.497L1013.87 279.925C1013.81 279.907 1013.77 279.84 1013.79 279.776L1014.77 276.693C1014.79 276.628 1014.86 276.59 1014.92 276.607L1017.11 277.224C1018.28 277.58 1018.69 278.31 1018.34 279.414C1018.18 279.925 1017.88 280.276 1017.45 280.467Z" fill="#FFFBF7"/>
</g>
</g>
<path d="M1177.16 337.716C1177.95 340.84 1177.77 343.957 1176.8 346.808C1176.49 347.729 1176.1 348.622 1175.62 349.479C1174.57 351.383 1173.15 353.099 1171.41 354.542C1171.14 354.774 1170.85 354.996 1170.56 355.213C1169.66 355.882 1168.69 356.474 1167.65 356.979C1166.52 357.548 1165.3 358.01 1164.02 358.349C1163.66 358.453 1163.28 358.544 1162.9 358.625C1152.65 360.796 1142.41 354.956 1140.04 345.58C1139.19 342.227 1139.45 338.881 1140.63 335.863C1141.08 334.662 1141.69 333.515 1142.42 332.441C1142.93 331.7 1143.49 330.992 1144.11 330.34C1144.45 329.971 1144.8 329.624 1145.17 329.29C1146.67 327.924 1148.43 326.775 1150.4 325.922C1151.36 325.502 1152.37 325.15 1153.43 324.881C1153.72 324.802 1154.01 324.734 1154.3 324.674C1164.55 322.5 1174.78 328.342 1177.16 337.716Z" fill="#F0E6DD"/>
<g opacity="0.53">
<path d="M1170.45 352.494C1177 346.505 1177 336.795 1170.45 330.806C1163.9 324.817 1153.29 324.817 1146.74 330.806C1140.19 336.795 1140.19 346.505 1146.74 352.494C1153.29 358.483 1163.9 358.483 1170.45 352.494Z" fill="#DDC2A9"/>
</g>
<path d="M1169.82 351.92C1176.03 346.248 1176.03 337.052 1169.82 331.38C1163.62 325.708 1153.57 325.708 1147.36 331.38C1141.16 337.052 1141.16 346.248 1147.36 351.92C1153.57 357.592 1163.62 357.592 1169.82 351.92Z" fill="#EAD2BA"/>
<g opacity="0.65">
<path d="M1168.68 346.543C1164.69 347.338 1160.51 346.416 1157.35 344.033C1157.35 344.033 1157.35 344.033 1157.35 344.033L1145.82 335.342C1149.77 334.583 1153.89 335.493 1157.02 337.833C1157.02 337.833 1157.02 337.833 1157.03 337.833L1168.68 346.543Z" fill="white" stroke="#EAD2BA" stroke-width="0.7"/>
<path d="M1164.09 330.865L1158.86 343.659C1158.86 343.659 1158.86 343.659 1158.86 343.659C1157.43 347.168 1154.31 349.878 1150.42 351.017L1155.75 338.145C1155.75 338.145 1155.75 338.145 1155.75 338.145C1157.19 334.686 1160.26 332.013 1164.09 330.865Z" fill="white" stroke="#EAD2BA" stroke-width="0.7"/>
<path d="M1164.09 330.866L1160.37 339.975C1159.39 340.402 1158.36 340.753 1157.27 341.019C1156.19 341.284 1155.1 341.452 1154.02 341.529L1145.82 335.341C1147.54 335.011 1149.3 335.002 1150.99 335.287C1150.99 335.287 1150.99 335.287 1151 335.288L1151.04 334.947C1151.04 334.947 1151.05 334.947 1151.05 334.947C1151.05 334.948 1151.05 334.948 1151.06 334.948C1151.78 335.072 1152.5 335.248 1153.2 335.477M1164.09 330.866L1151.02 335.291M1164.09 330.866C1162.43 331.364 1160.92 332.15 1159.61 333.161M1164.09 330.866L1159.61 333.161M1153.2 335.477L1153.08 335.801L1153.09 335.802L1153.09 335.803M1153.2 335.477L1153.1 335.805C1153.09 335.804 1153.09 335.803 1153.09 335.803M1153.2 335.477C1153.2 335.478 1153.2 335.479 1153.2 335.479C1153.21 335.482 1153.22 335.486 1153.23 335.488M1153.09 335.803C1152.41 335.581 1151.72 335.41 1151.02 335.291M1153.09 335.803L1153.1 335.807C1153.11 335.81 1153.12 335.814 1153.13 335.818M1151.02 335.291L1151.02 335.291C1151.02 335.291 1151.02 335.291 1151.02 335.291C1151.02 335.291 1151.02 335.291 1151.02 335.291L1151.01 335.29L1151.01 335.289L1151 335.288L1151 335.288L1151.01 335.289C1151.01 335.29 1151.01 335.29 1151.02 335.291ZM1153.13 335.818C1153.13 335.817 1153.13 335.816 1153.13 335.815L1153.23 335.488M1153.13 335.818C1153.82 336.047 1154.49 336.324 1155.13 336.655L1155.13 336.655L1155.14 336.659C1155.16 336.667 1155.16 336.67 1155.17 336.675C1155.18 336.68 1155.19 336.687 1155.23 336.707L1155.23 336.708C1155.44 336.817 1155.65 336.933 1155.85 337.054L1156.17 337.242L1156.34 336.935C1156.44 336.746 1156.55 336.561 1156.67 336.377M1153.13 335.818C1153.14 335.819 1153.14 335.82 1153.15 335.822L1153.23 335.488M1153.23 335.488C1153.94 335.723 1154.63 336.008 1155.29 336.35C1155.31 336.361 1155.33 336.372 1155.35 336.382C1155.36 336.39 1155.37 336.397 1155.39 336.404C1155.5 336.461 1155.61 336.521 1155.72 336.582C1155.72 336.583 1155.71 336.584 1155.71 336.585L1156.03 336.76L1156.2 336.466C1156.2 336.466 1156.2 336.465 1156.2 336.464C1156.25 336.37 1156.31 336.277 1156.37 336.184M1156.67 336.377C1156.67 336.379 1156.67 336.38 1156.67 336.381L1156.37 336.184M1156.67 336.377C1156.69 336.351 1156.7 336.325 1156.71 336.306L1156.72 336.304C1156.73 336.282 1156.74 336.268 1156.75 336.257L1156.75 336.257L1156.75 336.252C1156.92 335.984 1157.11 335.722 1157.3 335.466M1156.67 336.377C1156.67 336.376 1156.67 336.375 1156.67 336.374L1156.37 336.184M1156.37 336.184C1156.38 336.164 1156.4 336.143 1156.41 336.122C1156.42 336.101 1156.43 336.08 1156.45 336.059C1156.63 335.782 1156.82 335.512 1157.02 335.249M1157.3 335.466C1157.3 335.467 1157.3 335.468 1157.3 335.468L1157.02 335.249M1157.3 335.466C1157.32 335.45 1157.33 335.433 1157.35 335.414C1157.36 335.395 1157.38 335.375 1157.39 335.354L1157.4 335.353C1157.58 335.125 1157.76 334.901 1157.96 334.684M1157.3 335.466C1157.3 335.465 1157.31 335.465 1157.31 335.464L1157.02 335.249M1157.02 335.249C1157.03 335.23 1157.05 335.211 1157.07 335.192C1157.08 335.173 1157.1 335.154 1157.11 335.135C1157.3 334.899 1157.49 334.669 1157.7 334.445M1157.96 334.684C1157.96 334.686 1157.96 334.688 1157.96 334.69L1157.7 334.445M1157.96 334.684C1157.98 334.664 1158 334.644 1158.01 334.629C1158.01 334.626 1158.02 334.623 1158.02 334.621C1158.03 334.607 1158.04 334.598 1158.05 334.589L1158.05 334.589L1158.05 334.587C1158.51 334.088 1159.02 333.627 1159.56 333.201L1159.56 333.201L1159.56 333.197L1159.58 333.182C1159.59 333.176 1159.6 333.169 1159.61 333.161M1157.96 334.684C1157.96 334.683 1157.96 334.681 1157.97 334.68L1157.7 334.445M1157.7 334.445C1157.71 334.427 1157.73 334.408 1157.75 334.39C1157.76 334.376 1157.77 334.363 1157.78 334.35C1158.26 333.837 1158.78 333.364 1159.33 332.928C1159.34 332.921 1159.35 332.915 1159.36 332.908C1159.37 332.902 1159.37 332.895 1159.38 332.889M1159.61 333.161C1159.61 333.162 1159.61 333.162 1159.61 333.163L1159.38 332.889M1159.61 333.161C1159.61 333.16 1159.61 333.159 1159.61 333.158L1159.38 332.889M1159.61 333.161L1159.38 332.889" fill="white" stroke="#EAD2BA" stroke-width="0.7"/>
</g>
<path d="M700.525 492.748C701.315 495.872 701.134 498.989 700.16 501.84C699.857 502.761 699.458 503.653 698.983 504.51C697.937 506.415 696.513 508.131 694.773 509.574C694.499 509.806 694.216 510.027 693.924 510.245C693.021 510.914 692.05 511.506 691.01 512.011C689.879 512.58 688.665 513.042 687.386 513.381C687.02 513.485 686.642 513.576 686.261 513.657C676.009 515.828 665.773 509.988 663.398 500.612C662.55 497.259 662.814 493.913 663.992 490.895C664.447 489.692 665.053 488.547 665.787 487.473C666.291 486.732 666.853 486.024 667.475 485.372C667.81 485.003 668.163 484.655 668.532 484.322C670.033 482.956 671.792 481.807 673.761 480.954C674.721 480.534 675.738 480.182 676.797 479.913C677.082 479.834 677.372 479.766 677.662 479.706C687.912 477.532 698.15 483.372 700.525 492.748Z" fill="#F0E6DD"/>
<g opacity="0.53">
<path d="M693.814 507.523C700.363 501.534 700.363 491.824 693.814 485.835C687.265 479.846 676.648 479.846 670.099 485.835C663.55 491.824 663.55 501.534 670.099 507.523C676.648 513.512 687.265 513.512 693.814 507.523Z" fill="#C9A483"/>
</g>
<path d="M697.717 498.501C698.818 490.542 692.656 483.275 683.954 482.268C675.252 481.261 667.306 486.897 666.205 494.855C665.104 502.813 671.266 510.081 679.968 511.087C688.67 512.094 696.617 506.459 697.717 498.501Z" fill="#EAD2BA"/>
<path d="M689.659 496.021C689.066 495.59 688.351 495.333 687.513 495.253C687.339 495.236 687.275 495.039 687.409 494.938C687.991 494.497 688.407 494 688.659 493.449C688.969 492.775 689.03 492.077 688.842 491.357C688.475 489.945 687.651 489.001 686.37 488.527C685.367 488.156 684.118 488.069 682.615 488.266C682.515 488.278 682.42 488.22 682.395 488.131L681.806 485.864C681.782 485.769 681.677 485.709 681.571 485.732L679.959 486.082C679.855 486.105 679.79 486.2 679.814 486.297L680.389 488.51C680.414 488.605 680.349 488.703 680.245 488.725L679.011 488.992C678.907 489.015 678.8 488.955 678.775 488.86L678.2 486.647C678.176 486.552 678.071 486.492 677.965 486.514L676.353 486.864C676.249 486.887 676.184 486.982 676.208 487.08L676.783 489.293C676.808 489.388 676.743 489.485 676.639 489.508L671.849 490.547C671.745 490.57 671.679 490.665 671.704 490.762L672.15 492.479C672.175 492.574 672.279 492.634 672.385 492.611L675.283 491.982C675.387 491.959 675.493 492.019 675.518 492.114L678.44 503.366C678.465 503.461 678.4 503.558 678.296 503.581L675.398 504.21C675.294 504.233 675.228 504.328 675.253 504.426L675.699 506.142C675.724 506.237 675.828 506.297 675.935 506.274L680.724 505.235C680.829 505.212 680.935 505.272 680.96 505.368L681.544 507.618C681.569 507.713 681.673 507.773 681.779 507.75L683.391 507.4C683.495 507.378 683.561 507.282 683.536 507.185L682.952 504.935C682.927 504.84 682.993 504.742 683.097 504.72L684.33 504.453C684.435 504.43 684.541 504.49 684.566 504.585L685.15 506.835C685.175 506.931 685.279 506.991 685.385 506.968L686.997 506.618C687.101 506.595 687.167 506.5 687.142 506.403L686.551 504.123C686.526 504.032 686.587 503.939 686.685 503.912C688.308 503.453 689.507 502.784 690.282 501.904C691.194 500.869 691.456 499.612 691.074 498.136C690.845 497.244 690.374 496.538 689.659 496.021ZM685.673 492.201C685.856 492.907 685.716 493.514 685.25 494.021C684.783 494.528 684.052 494.89 683.049 495.11L680.079 495.756C679.975 495.778 679.869 495.718 679.844 495.623L678.787 491.553C678.762 491.458 678.828 491.361 678.932 491.338L681.877 490.698C682.981 490.458 683.839 490.454 684.45 490.688C685.064 490.918 685.471 491.423 685.673 492.201ZM687.472 500.79C687.013 501.339 686.277 501.724 685.268 501.943L681.877 502.68C681.773 502.703 681.666 502.643 681.641 502.548L680.455 497.981C680.43 497.886 680.496 497.789 680.6 497.766L684.258 496.971C686.239 496.578 687.441 497.199 687.866 498.834C688.063 499.59 687.932 500.242 687.472 500.79Z" fill="white"/>
<path d="M1130 294.193C1130.79 297.316 1130.62 300.434 1129.64 303.285C1129.34 304.206 1128.94 305.098 1128.46 305.955C1127.42 307.86 1125.99 309.576 1124.25 311.019C1123.98 311.251 1123.7 311.472 1123.4 311.69C1122.5 312.358 1121.53 312.95 1120.49 313.456C1119.36 314.025 1118.15 314.487 1116.87 314.826C1116.5 314.93 1116.12 315.021 1115.74 315.101C1105.49 317.273 1095.25 311.433 1092.88 302.057C1092.03 298.703 1092.29 295.358 1093.47 292.34C1093.93 291.137 1094.53 289.992 1095.27 288.918C1095.77 288.177 1096.33 287.469 1096.96 286.816C1097.29 286.448 1097.64 286.1 1098.01 285.767C1099.51 284.401 1101.27 283.252 1103.24 282.399C1104.2 281.978 1105.22 281.627 1106.28 281.357C1106.56 281.279 1106.85 281.21 1107.14 281.15C1117.39 278.977 1127.63 284.817 1130 294.193Z" fill="#FFF5EC"/>
<g opacity="0.53">
<path d="M1123.3 308.969C1129.84 302.98 1129.84 293.27 1123.3 287.281C1116.75 281.292 1106.13 281.292 1099.58 287.281C1093.03 293.27 1093.03 302.98 1099.58 308.969C1106.13 314.958 1116.75 314.958 1123.3 308.969Z" fill="#C1A284"/>
</g>
<path d="M1122.67 308.395C1128.87 302.723 1128.87 293.527 1122.67 287.855C1116.47 282.183 1106.41 282.183 1100.21 287.855C1094.01 293.527 1094.01 302.723 1100.21 308.395C1106.41 314.068 1116.47 314.068 1122.67 308.395Z" fill="#EAD2BA"/>
<g opacity="0.65">
<path d="M1123.5 302.263C1119.5 303.057 1115.32 302.135 1112.16 299.752C1112.16 299.752 1112.16 299.752 1112.16 299.752L1100.64 291.062C1104.59 290.302 1108.71 291.213 1111.84 293.552C1111.84 293.552 1111.84 293.552 1111.84 293.552L1123.5 302.263Z" fill="white" stroke="#EAD2BA" stroke-width="0.7"/>
<path d="M1118.91 286.584L1113.68 299.378C1113.68 299.378 1113.68 299.378 1113.68 299.378C1112.25 302.887 1109.13 305.597 1105.23 306.736L1110.57 293.864C1110.57 293.864 1110.57 293.864 1110.57 293.864C1112 290.406 1115.07 287.733 1118.91 286.584Z" fill="white" stroke="#EAD2BA" stroke-width="0.7"/>
<path d="M1118.9 286.585L1115.18 295.694C1114.21 296.121 1113.17 296.473 1112.09 296.738C1111.01 297.004 1109.92 297.171 1108.84 297.248L1100.64 291.061C1102.36 290.73 1104.12 290.722 1105.81 291.007C1105.81 291.007 1105.81 291.007 1105.81 291.007L1105.86 290.666C1105.86 290.666 1105.86 290.666 1105.87 290.667C1105.87 290.667 1105.87 290.667 1105.87 290.668C1106.6 290.791 1107.32 290.967 1108.01 291.197M1118.9 286.585L1105.83 291.01M1118.9 286.585C1117.25 287.084 1115.73 287.869 1114.43 288.88M1118.9 286.585L1114.43 288.88M1108.01 291.197L1107.9 291.52L1107.91 291.522L1107.91 291.522M1108.01 291.197L1107.91 291.524C1107.91 291.523 1107.91 291.523 1107.91 291.522M1108.01 291.197C1108.01 291.197 1108.02 291.198 1108.02 291.199C1108.03 291.201 1108.04 291.205 1108.04 291.207M1107.91 291.522C1107.23 291.3 1106.54 291.13 1105.83 291.01M1107.91 291.522L1107.92 291.526C1107.92 291.529 1107.94 291.533 1107.95 291.537M1105.83 291.01L1105.84 291.011C1105.84 291.011 1105.84 291.011 1105.84 291.011C1105.84 291.011 1105.84 291.011 1105.84 291.01L1105.83 291.009L1105.83 291.009L1105.82 291.008L1105.82 291.008L1105.83 291.009C1105.83 291.009 1105.83 291.009 1105.83 291.01ZM1107.95 291.537C1107.95 291.536 1107.94 291.535 1107.94 291.534L1108.04 291.207M1107.95 291.537C1108.64 291.766 1109.31 292.043 1109.95 292.374L1109.95 292.374L1109.96 292.378C1109.97 292.387 1109.98 292.389 1109.99 292.394C1109.99 292.399 1110.01 292.406 1110.04 292.426L1110.05 292.427C1110.25 292.536 1110.46 292.652 1110.67 292.773L1110.98 292.961L1111.15 292.654C1111.26 292.466 1111.37 292.28 1111.49 292.097M1107.95 291.537C1107.95 291.538 1107.96 291.54 1107.96 291.541L1108.04 291.207M1108.04 291.207C1108.75 291.443 1109.44 291.728 1110.1 292.07C1110.12 292.08 1110.14 292.091 1110.16 292.102C1110.18 292.109 1110.19 292.116 1110.2 292.123C1110.31 292.18 1110.42 292.24 1110.53 292.301C1110.53 292.302 1110.53 292.303 1110.53 292.304L1110.84 292.479L1111.02 292.186C1111.02 292.185 1111.01 292.184 1111.01 292.183C1111.07 292.089 1111.13 291.996 1111.19 291.903M1111.49 292.097C1111.49 292.098 1111.48 292.099 1111.48 292.101L1111.19 291.903M1111.49 292.097C1111.5 292.07 1111.52 292.044 1111.53 292.026L1111.53 292.023C1111.55 292.001 1111.55 291.988 1111.56 291.976L1111.56 291.976L1111.56 291.972C1111.74 291.703 1111.92 291.441 1112.12 291.185M1111.49 292.097C1111.49 292.096 1111.49 292.094 1111.49 292.093L1111.19 291.903M1111.19 291.903C1111.2 291.883 1111.21 291.862 1111.22 291.841C1111.24 291.82 1111.25 291.799 1111.26 291.779C1111.44 291.501 1111.63 291.232 1111.84 290.969M1112.12 291.185C1112.12 291.186 1112.12 291.187 1112.12 291.188L1111.84 290.969M1112.12 291.185C1112.13 291.169 1112.15 291.152 1112.16 291.134C1112.18 291.115 1112.19 291.094 1112.21 291.073L1112.21 291.073C1112.39 290.844 1112.58 290.62 1112.78 290.404M1112.12 291.185C1112.12 291.185 1112.12 291.184 1112.12 291.183L1111.84 290.969M1111.84 290.969C1111.85 290.95 1111.87 290.931 1111.88 290.912C1111.9 290.893 1111.91 290.874 1111.93 290.855C1112.11 290.619 1112.31 290.388 1112.51 290.164M1112.78 290.404C1112.78 290.405 1112.77 290.407 1112.77 290.409L1112.51 290.164M1112.78 290.404C1112.8 290.383 1112.81 290.364 1112.83 290.349C1112.83 290.346 1112.83 290.343 1112.84 290.34C1112.85 290.327 1112.86 290.317 1112.86 290.308L1112.86 290.308L1112.87 290.307C1113.33 289.808 1113.83 289.346 1114.38 288.92L1114.38 288.92L1114.38 288.917L1114.4 288.901C1114.41 288.896 1114.42 288.888 1114.43 288.88M1112.78 290.404C1112.78 290.402 1112.78 290.401 1112.78 290.399L1112.51 290.164M1112.51 290.164C1112.53 290.146 1112.55 290.128 1112.56 290.109C1112.58 290.096 1112.59 290.082 1112.6 290.069C1113.07 289.557 1113.59 289.083 1114.15 288.647C1114.16 288.64 1114.16 288.634 1114.17 288.627C1114.18 288.621 1114.19 288.614 1114.2 288.608M1114.43 288.88C1114.43 288.881 1114.43 288.882 1114.42 288.882L1114.2 288.608M1114.43 288.88C1114.43 288.879 1114.43 288.879 1114.43 288.878L1114.2 288.608M1114.43 288.88L1114.2 288.608" fill="white" stroke="#EAD2BA" stroke-width="0.7"/>
</g>
<path d="M729.194 481.32C730.206 485.312 729.973 489.295 728.728 492.938C728.341 494.116 727.831 495.255 727.225 496.352C725.889 498.784 724.067 500.979 721.846 502.823C721.495 503.119 721.133 503.403 720.762 503.68C719.607 504.535 718.367 505.291 717.038 505.937C715.592 506.663 714.041 507.254 712.407 507.688C711.936 507.819 711.454 507.937 710.969 508.04C697.87 510.816 684.788 503.351 681.755 491.373C680.67 487.088 681.01 482.813 682.513 478.954C683.095 477.418 683.869 475.952 684.806 474.58C685.451 473.634 686.166 472.729 686.963 471.893C687.391 471.421 687.842 470.978 688.315 470.551C690.232 468.804 692.48 467.336 694.997 466.247C696.224 465.709 697.523 465.26 698.877 464.918C699.241 464.817 699.61 464.732 699.982 464.653C713.077 461.877 726.158 469.34 729.194 481.32Z" fill="#F0E6DD"/>
<g opacity="0.53">
<path d="M720.621 500.202C728.989 492.55 728.989 480.142 720.621 472.489C712.253 464.836 698.686 464.836 690.318 472.489C681.95 480.142 681.95 492.55 690.318 500.202C698.686 507.855 712.253 507.855 720.621 500.202Z" fill="#CFAD90"/>
</g>
<path d="M719.819 499.469C727.744 492.221 727.744 480.47 719.819 473.223C711.894 465.975 699.045 465.975 691.12 473.223C683.195 480.47 683.195 492.221 691.12 499.469C699.045 506.717 711.894 506.717 719.819 499.469Z" fill="#EAD2BA"/>
<g opacity="0.65">
<path d="M711.126 499.236C707.232 497.154 704.595 493.541 703.995 489.44C703.995 489.44 703.995 489.44 703.995 489.44L701.817 474.527C705.644 476.605 708.241 480.167 708.854 484.214C708.854 484.214 708.854 484.214 708.854 484.214L711.126 499.236Z" fill="white" stroke="#EAD2BA" stroke-width="0.7"/>
<path d="M720.26 483.446L705.555 490.192C705.555 490.192 705.555 490.192 705.555 490.192C701.511 492.047 696.762 492.086 692.687 490.315L707.543 483.58C711.546 481.766 716.227 481.724 720.26 483.446Z" fill="white" stroke="#EAD2BA" stroke-width="0.7"/>
<path d="M720.257 483.445L709.752 488.264C708.616 487.94 707.497 487.518 706.406 486.99C705.316 486.463 704.304 485.854 703.372 485.177L701.816 474.524C703.497 475.438 704.938 476.643 706.082 478.046C706.082 478.046 706.082 478.047 706.083 478.047L706.372 477.834C706.374 477.835 706.375 477.837 706.377 477.839C706.379 477.841 706.381 477.843 706.382 477.845C706.865 478.44 707.297 479.07 707.67 479.729M720.257 483.445L706.097 478.063M720.257 483.445C718.499 482.696 716.616 482.285 714.717 482.205M720.257 483.445L714.717 482.205M707.67 479.729L707.344 479.887L707.347 479.892M707.67 479.729L707.35 479.898C707.349 479.896 707.348 479.894 707.347 479.892M707.67 479.729C707.671 479.731 707.672 479.732 707.672 479.734C707.676 479.742 707.681 479.75 707.686 479.758M707.347 479.892C706.985 479.252 706.566 478.641 706.097 478.063M707.347 479.892L707.347 479.892L707.353 479.904C707.356 479.911 707.362 479.921 707.369 479.933M706.097 478.063L706.101 478.068C706.103 478.07 706.102 478.069 706.1 478.067L706.096 478.062L706.092 478.058L706.089 478.053L706.089 478.053L706.092 478.058C706.094 478.06 706.095 478.061 706.097 478.063ZM707.369 479.933C707.368 479.931 707.367 479.928 707.365 479.926L707.686 479.758M707.369 479.933C707.736 480.588 708.049 481.268 708.293 481.972L708.293 481.972L708.296 481.98C708.303 481.999 708.305 482.005 708.308 482.015C708.311 482.026 708.315 482.04 708.328 482.079L708.328 482.081C708.408 482.312 708.481 482.549 708.546 482.784L708.64 483.127L709.003 483.006C709.242 482.926 709.483 482.853 709.726 482.784M707.369 479.933C707.372 479.937 707.374 479.941 707.377 479.946L707.686 479.758M707.686 479.758C708.063 480.43 708.384 481.129 708.636 481.855C708.645 481.877 708.652 481.899 708.658 481.921C708.663 481.936 708.667 481.95 708.672 481.964C708.717 482.096 708.76 482.229 708.801 482.363C708.797 482.365 708.792 482.366 708.788 482.368L708.895 482.687L709.245 482.59C709.243 482.585 709.242 482.581 709.241 482.576C709.374 482.536 709.507 482.496 709.64 482.459M709.726 482.784C709.725 482.785 709.723 482.785 709.722 482.786L709.64 482.459M709.726 482.784C709.761 482.775 709.794 482.765 709.818 482.758L709.821 482.757C709.85 482.748 709.868 482.743 709.885 482.738L709.885 482.738L709.89 482.737C710.25 482.64 710.614 482.556 710.981 482.484M709.726 482.784C709.728 482.784 709.729 482.784 709.73 482.783L709.64 482.459M709.64 482.459C709.668 482.452 709.695 482.443 709.722 482.435C709.749 482.427 709.776 482.418 709.804 482.411C710.174 482.311 710.548 482.225 710.924 482.152M710.981 482.484C710.98 482.484 710.979 482.485 710.978 482.485L710.924 482.152M710.981 482.484C711.005 482.48 711.03 482.476 711.057 482.471L711.058 482.471C711.085 482.466 711.115 482.461 711.145 482.456L711.146 482.456C711.477 482.395 711.812 482.344 712.148 482.304M710.981 482.484C710.982 482.484 710.983 482.484 710.984 482.484L710.924 482.152M710.924 482.152C710.952 482.147 710.98 482.142 711.008 482.137C711.036 482.133 711.064 482.128 711.091 482.123C711.433 482.061 711.778 482.008 712.123 481.967M712.148 482.304C712.145 482.305 712.143 482.305 712.14 482.305L712.123 481.967M712.148 482.304C712.18 482.301 712.209 482.298 712.232 482.295C712.237 482.294 712.241 482.293 712.245 482.293C712.266 482.29 712.28 482.288 712.295 482.287L712.295 482.287L712.297 482.287C713.076 482.2 713.859 482.174 714.644 482.203L714.644 482.203L714.65 482.203L714.679 482.204L714.68 482.204C714.691 482.205 714.704 482.205 714.717 482.205M712.148 482.304C712.15 482.304 712.152 482.304 712.154 482.304L712.123 481.967M712.123 481.967C712.152 481.965 712.18 481.961 712.209 481.957C712.229 481.955 712.25 481.952 712.27 481.95C713.068 481.861 713.87 481.835 714.673 481.864C714.685 481.864 714.697 481.865 714.709 481.865C714.721 481.866 714.733 481.866 714.744 481.866M714.717 482.205C714.716 482.205 714.715 482.205 714.714 482.205L714.744 481.866M714.717 482.205C714.719 482.206 714.72 482.206 714.722 482.206L714.744 481.866M714.717 482.205L714.744 481.866" fill="white" stroke="#EAD2BA" stroke-width="0.7"/>
</g>
<path d="M873.547 531.849H695.642C695.642 531.849 687.615 510.698 688.41 509.371C689.204 508.042 704.488 494.654 704.488 494.654L709.31 479.202L736.623 456.724L740.238 430.538L759.113 420.051L781.627 428.232L795.272 463.191L797.298 462.703L821.791 456.724L850.888 490.46H863.979L866.992 503.5L873.547 531.849Z" fill="#EEDECE"/>
<path d="M761.525 455.883L783.437 479.481L762.537 499.024L729.39 475.952L712.105 482.419L718.735 499.585L732.596 507.172L704.488 519.127L688.409 509.375C689.204 508.046 704.488 494.658 704.488 494.658L709.31 479.206L736.623 456.728L740.238 430.542L759.112 420.055L761.525 455.883Z" fill="#F9E9DE"/>
<path d="M866.991 503.498L846.308 517.655L833.797 499.895L840.69 490.563L833.797 477.173L811.618 486.787L795.274 465.497L797.298 462.701L821.791 456.722L850.888 490.457H863.979L866.991 503.498Z" fill="#FCF6F1"/>
<path d="M667.509 500.919C668.521 504.91 668.288 508.893 667.043 512.537C666.656 513.712 666.147 514.853 665.54 515.95C664.205 518.383 662.382 520.577 660.162 522.422C659.811 522.718 659.449 523.001 659.077 523.279C657.923 524.134 656.682 524.889 655.354 525.535C653.907 526.262 652.357 526.852 650.722 527.287C650.251 527.417 649.769 527.535 649.285 527.639C636.185 530.415 623.103 522.95 620.07 510.972C618.986 506.686 619.323 502.411 620.828 498.553C621.41 497.016 622.184 495.551 623.122 494.178C623.767 493.232 624.482 492.328 625.279 491.491C625.707 491.019 626.157 490.576 626.63 490.15C628.547 488.402 630.795 486.935 633.312 485.846C634.539 485.308 635.839 484.858 637.192 484.517C637.557 484.415 637.926 484.33 638.297 484.252C651.392 481.478 664.474 488.941 667.509 500.919Z" fill="#F0E6DD"/>
<g opacity="0.53">
<path d="M643.789 525.541C655.623 525.541 665.216 516.768 665.216 505.945C665.216 495.122 655.623 486.349 643.789 486.349C631.954 486.349 622.361 495.122 622.361 505.945C622.361 516.768 631.954 525.541 643.789 525.541Z" fill="#CBA37B"/>
</g>
<path d="M658.135 519.069C666.06 511.821 666.06 500.07 658.135 492.822C650.21 485.575 637.361 485.575 629.436 492.822C621.511 500.07 621.511 511.821 629.436 519.069C637.361 526.317 650.21 526.317 658.135 519.069Z" fill="#EAD2BA"/>
<path d="M650.172 493.169C649.533 492.659 648.764 492.358 647.866 492.262C647.68 492.243 647.61 492.01 647.755 491.89C648.379 491.369 648.827 490.783 649.098 490.131C649.431 489.335 649.497 488.511 649.297 487.66C648.903 485.993 648.017 484.88 646.641 484.319C645.564 483.88 644.218 483.779 642.605 484.011C642.497 484.027 642.395 483.959 642.37 483.852L641.738 481.178C641.712 481.065 641.599 480.995 641.486 481.023L639.753 481.435C639.64 481.461 639.57 481.575 639.598 481.689L640.216 484.301C640.242 484.415 640.172 484.529 640.061 484.555L638.736 484.871C638.623 484.897 638.51 484.827 638.484 484.715L637.866 482.103C637.84 481.989 637.727 481.919 637.614 481.947L635.881 482.36C635.767 482.386 635.698 482.499 635.726 482.613L636.344 485.226C636.37 485.339 636.3 485.453 636.189 485.479L631.041 486.706C630.928 486.732 630.858 486.846 630.886 486.959L631.365 488.987C631.391 489.1 631.504 489.17 631.617 489.142L634.73 488.4C634.843 488.373 634.957 488.443 634.983 488.555L638.124 501.837C638.15 501.951 638.08 502.064 637.969 502.091L634.854 502.833C634.741 502.86 634.671 502.973 634.699 503.087L635.178 505.114C635.204 505.228 635.317 505.298 635.43 505.27L640.578 504.043C640.691 504.017 640.804 504.087 640.83 504.198L641.458 506.855C641.484 506.968 641.597 507.038 641.711 507.01L643.444 506.598C643.557 506.572 643.627 506.458 643.599 506.344L642.971 503.688C642.944 503.574 643.014 503.461 643.126 503.435L644.45 503.118C644.563 503.092 644.676 503.162 644.702 503.274L645.33 505.93C645.357 506.044 645.47 506.114 645.583 506.086L647.316 505.673C647.429 505.647 647.499 505.534 647.471 505.42L646.836 502.73C646.81 502.622 646.874 502.514 646.979 502.48C648.722 501.939 650.012 501.149 650.845 500.111C651.825 498.889 652.109 497.407 651.697 495.665C651.448 494.614 650.939 493.781 650.172 493.169ZM645.887 488.662C646.084 489.495 645.933 490.212 645.433 490.811C644.934 491.411 644.145 491.839 643.068 492.096L639.875 492.858C639.761 492.884 639.648 492.814 639.622 492.702L638.486 487.896C638.46 487.783 638.529 487.669 638.641 487.643L641.806 486.888C642.993 486.605 643.916 486.599 644.573 486.874C645.231 487.148 645.67 487.744 645.887 488.662ZM647.821 498.802C647.327 499.45 646.536 499.903 645.451 500.161L641.805 501.03C641.691 501.056 641.578 500.986 641.552 500.874L640.277 495.483C640.251 495.369 640.32 495.256 640.432 495.229L644.365 494.291C646.493 493.828 647.786 494.56 648.242 496.491C648.456 497.384 648.315 498.153 647.821 498.802Z" fill="#FFFBF7" fill-opacity="0.78"/>
<path d="M708.907 517.257C707.607 520.248 705.509 522.724 702.921 524.569C702.095 525.171 701.21 525.697 700.28 526.156C698.227 527.181 695.977 527.852 693.64 528.133C693.269 528.181 692.898 528.216 692.522 528.243C691.359 528.324 690.188 528.303 689.014 528.177C687.723 528.055 686.433 527.8 685.168 527.413C684.801 527.305 684.432 527.185 684.067 527.053C674.252 523.486 669.456 513.313 673.358 504.337C674.753 501.126 677.064 498.503 679.923 496.629C681.05 495.876 682.266 495.246 683.542 494.743C684.421 494.396 685.326 494.106 686.25 493.891C686.757 493.76 687.266 493.659 687.78 493.578C689.872 493.234 692.042 493.205 694.2 493.534C695.254 493.69 696.314 493.93 697.355 494.263C697.64 494.348 697.921 494.443 698.197 494.543C708.012 498.11 712.809 508.28 708.907 517.257Z" fill="#F0E6DD"/>
<g opacity="0.53">
<path d="M703.031 521.681C709.604 515.67 709.604 505.923 703.031 499.911C696.457 493.9 685.8 493.9 679.226 499.911C672.653 505.923 672.653 515.67 679.226 521.681C685.8 527.693 696.457 527.693 703.031 521.681Z" fill="#CBAA8D"/>
</g>
<path d="M702.402 521.106C708.628 515.412 708.628 506.18 702.402 500.487C696.176 494.793 686.081 494.793 679.855 500.487C673.629 506.18 673.629 515.412 679.855 521.106C686.081 526.8 696.176 526.8 702.402 521.106Z" fill="#EAD2BA"/>
<path d="M697.722 499.163C697.344 498.646 696.826 498.262 696.169 498.007C696.032 497.955 696.027 497.764 696.16 497.701C696.738 497.431 697.194 497.076 697.532 496.634C697.945 496.095 698.163 495.482 698.185 494.794C698.229 493.445 697.788 492.419 696.865 491.714C696.142 491.162 695.149 490.813 693.885 490.664C693.801 490.655 693.737 490.582 693.74 490.496L693.809 488.333C693.813 488.241 693.742 488.165 693.651 488.164L692.26 488.127C692.169 488.125 692.094 488.197 692.092 488.289L692.025 490.403C692.021 490.494 691.945 490.567 691.856 490.564L690.793 490.537C690.703 490.534 690.631 490.458 690.635 490.368L690.702 488.255C690.705 488.163 690.634 488.087 690.543 488.085L689.152 488.049C689.062 488.046 688.986 488.118 688.984 488.211L688.917 490.324C688.913 490.416 688.838 490.488 688.748 490.486L684.617 490.38C684.527 490.377 684.451 490.449 684.449 490.541L684.396 492.181C684.393 492.273 684.464 492.349 684.555 492.35L687.053 492.414C687.144 492.417 687.215 492.493 687.212 492.583L686.871 503.327C686.868 503.419 686.792 503.491 686.703 503.489L684.203 503.425C684.112 503.422 684.036 503.494 684.034 503.586L683.982 505.226C683.978 505.318 684.049 505.394 684.14 505.396L688.271 505.502C688.362 505.505 688.433 505.581 688.43 505.671L688.362 507.82C688.358 507.912 688.429 507.988 688.52 507.989L689.911 508.025C690.002 508.028 690.077 507.956 690.079 507.864L690.148 505.715C690.151 505.623 690.227 505.551 690.316 505.553L691.379 505.58C691.47 505.583 691.541 505.659 691.537 505.75L691.469 507.898C691.466 507.99 691.537 508.066 691.628 508.068L693.019 508.104C693.109 508.107 693.185 508.034 693.187 507.942L693.257 505.767C693.259 505.679 693.33 505.61 693.415 505.605C694.84 505.545 695.974 505.205 696.814 504.583C697.802 503.851 698.318 502.78 698.362 501.371C698.389 500.521 698.176 499.784 697.722 499.163ZM695.411 494.867C695.389 495.541 695.129 496.056 694.63 496.411C694.131 496.767 693.45 496.933 692.585 496.911L690.022 496.846C689.932 496.843 689.861 496.767 689.864 496.677L689.987 492.789C689.991 492.698 690.066 492.625 690.156 492.628L692.696 492.693C693.649 492.717 694.345 492.899 694.785 493.241C695.225 493.583 695.434 494.125 695.411 494.867ZM694.801 502.975C694.296 503.369 693.608 503.554 692.736 503.532L689.811 503.456C689.72 503.453 689.649 503.377 689.652 503.287L689.79 498.925C689.794 498.834 689.869 498.761 689.958 498.764L693.115 498.844C694.814 498.922 695.639 499.74 695.589 501.302C695.569 502.025 695.305 502.582 694.801 502.975Z" fill="#FFFBF7" fill-opacity="0.78"/>
<path d="M488.88 530.646L498.813 518.256L520.349 523.134L530.687 517.482L545.086 518.391L558.799 524.891L568.194 514.468L581.309 511.971L591.693 517.482L598.936 511.971L624.912 509.33L644.126 523.63L651.734 515.43L669.146 519.799L687.728 526.514L707.234 511.971V500.494L718.745 501.275L732.84 513.135L752.263 512.841L769.727 515.569L777.065 505.222L794.602 502.264L810.35 513.135L842.614 511.971L844.857 502.264H857.622L870.692 511.971L877.848 506.334L900.546 508.272L907.203 513.135L914.333 512.035L925.185 523.134L924.097 528.74L488.88 530.646Z" fill="#EEE0D1"/>
<g opacity="0.53">
<path d="M612.206 533.052C727.196 533.052 820.413 530.768 820.413 527.951C820.413 525.134 727.196 522.85 612.206 522.85C497.217 522.85 404 525.134 404 527.951C404 530.768 497.217 533.052 612.206 533.052Z" fill="#E9D2BB"/>
</g>
<path d="M803.402 488.099C804.228 491.357 804.038 494.61 803.022 497.585C802.706 498.545 802.289 499.475 801.794 500.371C800.703 502.357 799.216 504.149 797.402 505.655C797.117 505.898 796.821 506.128 796.517 506.355C795.575 507.053 794.563 507.669 793.477 508.198C792.297 508.791 791.03 509.273 789.696 509.626C789.312 509.733 788.919 509.83 788.522 509.914C777.827 512.18 767.146 506.086 764.668 496.306C763.781 492.807 764.058 489.316 765.288 486.167C765.764 484.912 766.396 483.717 767.159 482.595C767.686 481.823 768.271 481.083 768.919 480.402C769.267 480.017 769.637 479.654 770.022 479.307C771.588 477.881 773.424 476.683 775.479 475.793C776.481 475.354 777.542 474.987 778.646 474.707C778.943 474.625 779.246 474.554 779.548 474.491C790.243 472.225 800.924 478.318 803.402 488.099Z" fill="#FCD554"/>
<path d="M796.402 503.516C803.234 497.268 803.234 487.138 796.402 480.89C789.57 474.642 778.493 474.642 771.661 480.89C764.829 487.138 764.829 497.268 771.661 503.516C778.493 509.764 789.57 509.764 796.402 503.516Z" fill="#FF8243"/>
<path d="M795.747 502.917C802.217 497 802.217 487.406 795.747 481.488C789.276 475.571 778.786 475.571 772.315 481.488C765.844 487.406 765.844 497 772.315 502.917C778.786 508.835 789.276 508.835 795.747 502.917Z" fill="#FFA942"/>
<g opacity="0.67">
<path d="M793.983 500.133C789.895 500.006 786.077 498.163 783.634 495.126C783.634 495.126 783.634 495.126 783.634 495.126L774.732 484.057C778.765 484.207 782.527 486.026 784.954 489.013C784.954 489.013 784.954 489.013 784.954 489.013L793.983 500.133Z" fill="white" stroke="#FFA942" stroke-width="0.7"/>
<path d="M793.637 483.817L785.211 495.105C785.211 495.105 785.211 495.105 785.211 495.105C782.899 498.202 779.161 500.14 775.08 500.371L783.633 489.031C783.633 489.031 783.633 489.031 783.633 489.031C785.931 485.983 789.614 484.071 793.637 483.817Z" fill="white" stroke="#FFA942" stroke-width="0.7"/>
<path d="M793.676 483.819L787.65 491.863C786.587 492.06 785.49 492.171 784.365 492.187C783.24 492.202 782.139 492.121 781.069 491.953L774.731 484.08C776.494 484.144 778.205 484.531 779.777 485.189C779.778 485.189 779.778 485.19 779.779 485.19L779.912 484.867C779.914 484.868 779.917 484.869 779.919 484.87C779.921 484.87 779.924 484.871 779.926 484.872C780.6 485.156 781.25 485.488 781.867 485.869M793.676 483.819L779.798 485.197M793.676 483.819C791.931 483.933 790.25 484.359 788.713 485.052M793.676 483.819L788.713 485.052M781.867 485.869L781.674 486.16L781.679 486.162L781.679 486.163M781.867 485.869L781.685 486.166C781.683 486.165 781.681 486.164 781.679 486.163M781.867 485.869C781.869 485.87 781.87 485.871 781.872 485.872C781.879 485.876 781.886 485.882 781.894 485.886M781.679 486.163C781.082 485.795 780.452 485.473 779.798 485.197M781.679 486.163L781.69 486.17C781.696 486.174 781.706 486.18 781.718 486.187M779.798 485.197L779.805 485.2C779.807 485.2 779.805 485.2 779.803 485.199L779.797 485.197L779.792 485.195L779.786 485.192L779.786 485.192L779.792 485.195C779.794 485.196 779.796 485.196 779.798 485.197ZM781.718 486.187C781.715 486.186 781.713 486.184 781.711 486.183L781.894 485.886M781.718 486.187C782.327 486.566 782.905 486.986 783.44 487.453L783.44 487.453L783.446 487.458C783.461 487.47 783.464 487.474 783.471 487.48C783.478 487.487 783.487 487.497 783.518 487.524L783.52 487.526C783.695 487.679 783.868 487.84 784.033 488.003L784.287 488.254L784.532 487.997C784.685 487.836 784.842 487.681 785.003 487.528M781.718 486.187C781.722 486.189 781.726 486.192 781.731 486.195L781.894 485.886M781.894 485.886C782.521 486.275 783.116 486.707 783.669 487.19C783.686 487.204 783.702 487.219 783.718 487.234C783.729 487.244 783.739 487.254 783.75 487.263C783.842 487.344 783.934 487.427 784.025 487.512C784.025 487.512 784.024 487.512 784.024 487.512L784.278 487.755L784.524 487.506C784.523 487.506 784.523 487.506 784.522 487.505C784.602 487.426 784.683 487.348 784.764 487.27M785.003 487.528C785.002 487.529 785.001 487.53 785 487.531L784.764 487.27M785.003 487.528C785.027 487.506 785.049 487.484 785.065 487.468L785.067 487.466C785.085 487.448 785.097 487.436 785.108 487.427L785.108 487.427L785.111 487.423C785.352 487.2 785.602 486.987 785.861 486.781M785.003 487.528C785.004 487.527 785.005 487.526 785.006 487.525L784.764 487.27M784.764 487.27C784.783 487.254 784.801 487.236 784.819 487.218C784.836 487.2 784.854 487.183 784.873 487.166C785.121 486.936 785.378 486.716 785.644 486.505M785.861 486.781C785.86 486.782 785.859 486.783 785.858 486.783L785.644 486.505M785.861 486.781C785.878 486.768 785.895 486.755 785.915 486.74L785.916 486.74C785.935 486.725 785.957 486.709 785.978 486.693L785.979 486.692C786.215 486.51 786.458 486.334 786.706 486.167M785.861 486.781C785.861 486.781 785.862 486.78 785.863 486.78L785.644 486.505M785.644 486.505C785.664 486.49 785.684 486.475 785.704 486.46C785.724 486.445 785.744 486.43 785.764 486.415C786.007 486.226 786.258 486.045 786.515 485.873M786.706 486.167C786.704 486.168 786.702 486.169 786.7 486.171L786.515 485.873M786.706 486.167C786.731 486.151 786.753 486.136 786.77 486.124C786.773 486.122 786.776 486.12 786.779 486.118C786.795 486.107 786.805 486.1 786.815 486.093L786.815 486.093L786.818 486.092C787.398 485.709 788.012 485.373 788.653 485.079L788.653 485.079L788.659 485.077L788.682 485.066L788.683 485.066C788.691 485.062 788.702 485.057 788.713 485.052M786.706 486.167C786.708 486.166 786.71 486.165 786.711 486.163L786.515 485.873M786.515 485.873C786.536 485.859 786.557 485.845 786.578 485.83C786.593 485.82 786.608 485.809 786.624 485.8C787.22 485.406 787.849 485.061 788.506 484.761C788.516 484.756 788.526 484.752 788.535 484.747C788.545 484.743 788.555 484.738 788.565 484.734M788.713 485.052C788.712 485.052 788.711 485.053 788.71 485.053L788.565 484.734M788.713 485.052C788.714 485.051 788.716 485.051 788.717 485.05L788.565 484.734M788.713 485.052L788.565 484.734" fill="white" stroke="#FFA942" stroke-width="0.7"/>
</g>
<g opacity="0.75">
<path d="M799.82 496.805C798.101 501.722 793.678 505.711 787.773 506.962C778.857 508.852 769.961 503.776 767.895 495.622C766.454 489.934 768.714 484.258 773.242 480.707C772.364 483.218 772.192 485.974 772.889 488.728C774.955 496.882 783.851 501.958 792.767 500.069C795.47 499.497 797.854 498.353 799.82 496.805Z" fill="#FF8243" fill-opacity="0.6"/>
</g>
<path d="M807.502 524.653H741.981C741.981 524.653 739.025 517.916 739.317 517.492C739.609 517.069 745.239 512.803 745.239 512.803L747.014 507.88L757.074 500.719L758.404 492.377L765.356 489.036L773.649 491.641L778.674 502.78L779.421 502.624L788.441 500.719L799.158 511.467H803.979L805.088 515.622L807.502 524.653Z" fill="#EBD5BE"/>
<path d="M766.245 500.451L774.315 507.968L766.618 514.195L754.41 506.844L748.044 508.904L750.487 514.372L755.591 516.79L745.239 520.599L739.317 517.491C739.609 517.068 745.239 512.801 745.239 512.801L747.014 507.879L757.074 500.718L758.405 492.375L765.356 489.034L766.245 500.451Z" fill="#F9E9DE"/>
<path d="M805.086 515.621L797.469 520.131L792.861 514.473L795.4 511.5L792.861 507.234L784.693 510.297L778.674 503.514L779.42 502.623L788.439 500.718L799.156 511.466H803.976L805.086 515.621Z" fill="#F9E9DE"/>
<path d="M788.962 522.398V527.643C788.962 528.241 788.45 528.726 787.82 528.726H740.478C739.848 528.726 739.336 528.241 739.336 527.643V522.398C739.336 521.8 739.848 521.315 740.478 521.315H787.82C788.45 521.315 788.962 521.8 788.962 522.398Z" fill="#FFE36C"/>
<path d="M788.962 522.465H739.334V527.333H788.962V522.465Z" fill="#FFC84A"/>
<g opacity="0.8">
<path d="M743.963 522.466H742.532V527.331H743.963V522.466Z" fill="#FF884D"/>
<path d="M748.586 522.466H747.155V527.331H748.586V522.466Z" fill="#FF884D"/>
<path d="M753.209 522.466H751.779V527.331H753.209V522.466Z" fill="#FF884D"/>
<path d="M757.83 522.466H756.4V527.331H757.83V522.466Z" fill="#FF884D"/>
<path d="M762.452 522.466H761.022V527.331H762.452V522.466Z" fill="#FF884D"/>
<path d="M767.075 522.466H765.644V527.331H767.075V522.466Z" fill="#FF884D"/>
<path d="M771.699 522.466H770.268V527.331H771.699V522.466Z" fill="#FF884D"/>
<path d="M776.321 522.466H774.89V527.331H776.321V522.466Z" fill="#FF884D"/>
<path d="M780.944 522.466H779.513V527.331H780.944V522.466Z" fill="#FF884D"/>
<path d="M785.566 522.466H784.136V527.331H785.566V522.466Z" fill="#FF884D"/>
</g>
<g opacity="0.54">
<path d="M764.302 522.466L761.724 527.333H757.287L760.074 522.466H764.302Z" fill="#FFF2BB"/>
<path d="M747.775 522.466L745.24 527.333H743.247L745.688 522.466H747.775Z" fill="#FFF2BB"/>
<path d="M776.863 522.466L773.547 527.333H766.079L769.607 522.466H776.863Z" fill="#FFF2BB"/>
</g>
<path d="M808 560.371C808 561.637 806.837 562.784 804.951 563.615C803.064 564.447 800.465 564.959 797.596 564.959H697.409C691.662 564.959 687 562.905 687 560.373C687 559.106 688.168 557.963 690.049 557.132C691.936 556.302 694.536 555.788 697.413 555.788H797.6C803.338 555.786 808 557.84 808 560.371Z" fill="#F8EBE0"/>
<path d="M808 560.371C808 561.637 806.837 562.784 804.951 563.615C803.064 564.447 800.465 564.959 797.596 564.959H697.409C691.662 564.959 687 562.905 687 560.373C687 559.106 688.168 557.963 690.049 557.132C691.936 556.302 694.536 555.788 697.413 555.788H797.6C803.338 555.786 808 557.84 808 560.371Z" fill="#F8EBE0"/>
<path d="M1400.04 550.059C1400.04 551.408 1399.44 552.632 1398.47 553.518C1397.5 554.404 1396.16 554.95 1394.69 554.95H1343.23C1340.27 554.95 1337.88 552.76 1337.88 550.061C1337.88 548.711 1338.48 547.492 1339.45 546.606C1340.42 545.722 1341.75 545.173 1343.23 545.173H1394.69C1397.64 545.171 1400.04 547.361 1400.04 550.059Z" fill="#F8EBE0"/>
<path d="M239 549.823C239 551.216 237.817 552.478 235.9 553.393C233.983 554.307 231.34 554.871 228.424 554.871H126.581C120.739 554.871 116 552.611 116 549.825C116 548.433 117.187 547.174 119.1 546.26C121.017 545.348 123.66 544.782 126.585 544.782H228.428C234.261 544.78 239 547.04 239 549.823Z" fill="#F8EBE0"/>
<path d="M169.49 461.038C170.891 467.062 170.57 473.078 168.846 478.579C168.31 480.355 167.603 482.075 166.763 483.731C164.913 487.405 162.392 490.718 159.316 493.503C158.832 493.951 158.33 494.377 157.815 494.797C156.216 496.088 154.501 497.227 152.659 498.204C150.656 499.301 148.508 500.192 146.245 500.846C145.595 501.043 144.928 501.223 144.254 501.378C126.117 505.568 108.002 494.3 103.8 476.214C102.296 469.744 102.766 463.289 104.851 457.465C105.659 455.146 106.73 452.935 108.025 450.861C108.919 449.433 109.91 448.065 111.01 446.805C111.6 446.094 112.227 445.423 112.88 444.78C115.535 442.144 118.649 439.927 122.135 438.282C123.834 437.471 125.633 436.791 127.506 436.274C128.01 436.123 128.523 435.991 129.036 435.874C147.173 431.684 165.288 442.952 169.49 461.038Z" fill="#FCD554"/>
<path d="M136.641 498.21C153.028 498.21 166.311 484.964 166.311 468.625C166.311 452.285 153.028 439.039 136.641 439.039C120.255 439.039 106.972 452.285 106.972 468.625C106.972 484.964 120.255 498.21 136.641 498.21Z" fill="#FF8243"/>
<path d="M156.51 488.439C167.484 477.497 167.484 459.756 156.51 448.813C145.536 437.871 127.744 437.871 116.771 448.813C105.797 459.756 105.797 477.497 116.771 488.439C127.744 499.382 145.536 499.382 156.51 488.439Z" fill="#FFA942"/>
<path d="M146.582 467.662C145.719 466.966 144.681 466.557 143.468 466.425C143.217 466.399 143.123 466.082 143.318 465.918C144.161 465.208 144.765 464.41 145.132 463.521C145.581 462.435 145.67 461.313 145.4 460.152C144.869 457.879 143.672 456.362 141.814 455.597C140.359 454.999 138.543 454.861 136.364 455.177C136.219 455.199 136.08 455.106 136.047 454.961L135.194 451.315C135.159 451.161 135.006 451.065 134.853 451.103L132.513 451.666C132.36 451.701 132.266 451.856 132.304 452.011L133.138 455.573C133.173 455.728 133.079 455.883 132.929 455.918L131.14 456.35C130.988 456.385 130.835 456.29 130.8 456.138L129.965 452.576C129.93 452.421 129.777 452.326 129.625 452.364L127.284 452.926C127.131 452.962 127.037 453.117 127.075 453.271L127.909 456.833C127.944 456.988 127.85 457.143 127.7 457.179L120.749 458.851C120.596 458.887 120.502 459.042 120.54 459.197L121.186 461.961C121.221 462.115 121.374 462.211 121.527 462.173L125.731 461.16C125.884 461.124 126.036 461.22 126.072 461.372L130.313 479.479C130.348 479.634 130.254 479.789 130.104 479.825L125.898 480.837C125.745 480.873 125.651 481.028 125.688 481.183L126.335 483.947C126.37 484.102 126.523 484.197 126.676 484.159L133.627 482.486C133.779 482.45 133.932 482.546 133.967 482.698L134.816 486.32C134.851 486.475 135.004 486.57 135.156 486.532L137.497 485.969C137.65 485.934 137.744 485.779 137.706 485.624L136.858 482.003C136.822 481.848 136.916 481.693 137.067 481.657L138.855 481.226C139.008 481.19 139.161 481.285 139.196 481.438L140.044 485.059C140.079 485.214 140.232 485.309 140.385 485.271L142.725 484.709C142.878 484.673 142.972 484.518 142.935 484.364L142.077 480.697C142.042 480.549 142.129 480.401 142.27 480.356C144.624 479.618 146.365 478.541 147.491 477.125C148.814 475.46 149.197 473.44 148.64 471.064C148.304 469.632 147.618 468.496 146.582 467.662ZM140.796 461.517C141.062 462.654 140.857 463.631 140.183 464.448C139.508 465.265 138.444 465.849 136.989 466.199L132.677 467.238C132.524 467.274 132.372 467.178 132.336 467.026L130.802 460.474C130.767 460.319 130.861 460.164 131.011 460.128L135.286 459.099C136.888 458.713 138.134 458.706 139.022 459.08C139.91 459.454 140.502 460.267 140.796 461.517ZM143.407 475.341C142.74 476.225 141.673 476.842 140.206 477.195L135.283 478.379C135.131 478.414 134.978 478.319 134.943 478.167L133.22 470.816C133.185 470.662 133.279 470.507 133.429 470.471L138.74 469.192C141.614 468.56 143.36 469.559 143.976 472.191C144.265 473.409 144.074 474.457 143.407 475.341Z" fill="#FFEBD3"/>
<g opacity="0.75">
<path d="M163.415 477.138C160.499 486.23 152.997 493.608 142.983 495.921C127.861 499.415 112.774 490.029 109.271 474.95C106.828 464.434 110.66 453.937 118.34 447.37C116.85 452.014 116.558 457.11 117.741 462.203C121.244 477.281 136.331 486.667 151.453 483.174C156.039 482.117 160.083 480 163.415 477.138Z" fill="#F5702D" fill-opacity="0.49"/>
</g>
<path d="M101.591 529.858V539.558C101.591 540.663 102.459 541.56 103.527 541.56H183.818C184.886 541.56 185.754 540.663 185.754 539.558V529.858C185.754 528.753 184.886 527.856 183.818 527.856H103.527C102.459 527.856 101.591 528.753 101.591 529.858Z" fill="#FFC84A"/>
<g opacity="0.8">
<path d="M101.59 529.983H185.756V538.983H101.59V529.983Z" fill="#FF884D"/>
</g>
<g opacity="0.8">
<path d="M177.906 529.982H180.332V538.98H177.906V529.982Z" fill="#FF5C50"/>
<path d="M170.068 529.982H172.494V538.98H170.068V529.982Z" fill="#FF5C50"/>
<path d="M162.226 529.982H164.653V538.98H162.226V529.982Z" fill="#FF5C50"/>
<path d="M154.387 529.982H156.814V538.98H154.387V529.982Z" fill="#FF5C50"/>
<path d="M146.546 529.982H148.972V538.98H146.546V529.982Z" fill="#FF5C50"/>
<path d="M138.708 529.982H141.134V538.98H138.708V529.982Z" fill="#FF5C50"/>
<path d="M130.87 529.982H133.296V538.98H130.87V529.982Z" fill="#FF5C50"/>
<path d="M123.029 529.982H125.455V538.98H123.029V529.982Z" fill="#FF5C50"/>
<path d="M115.19 529.982H117.616V538.98H115.19V529.982Z" fill="#FF5C50"/>
<path d="M107.348 529.982H109.774V538.98H107.348V529.982Z" fill="#FF5C50"/>
</g>
<path d="M89.9997 516.15V525.85C89.9997 526.956 90.8677 527.853 91.9361 527.853H172.227C173.295 527.853 174.163 526.956 174.163 525.85V516.15C174.163 515.045 173.295 514.148 172.227 514.148H91.9361C90.8677 514.148 89.9997 515.045 89.9997 516.15Z" fill="#FFE36C"/>
<path d="M90.0014 516.271H174.167V525.271H90.0014V516.271Z" fill="#FFC84A"/>
<g opacity="0.8">
<path d="M166.316 516.275H168.742V525.272H166.316V516.275Z" fill="#FF884D"/>
<path d="M158.476 516.275H160.903V525.272H158.476V516.275Z" fill="#FF884D"/>
<path d="M150.636 516.275H153.062V525.272H150.636V516.275Z" fill="#FF884D"/>
<path d="M142.799 516.275H145.225V525.272H142.799V516.275Z" fill="#FF884D"/>
<path d="M134.96 516.275H137.386V525.272H134.96V516.275Z" fill="#FF884D"/>
<path d="M127.119 516.275H129.545V525.272H127.119V516.275Z" fill="#FF884D"/>
<path d="M119.279 516.275H121.705V525.272H119.279V516.275Z" fill="#FF884D"/>
<path d="M111.438 516.275H113.864V525.272H111.438V516.275Z" fill="#FF884D"/>
<path d="M103.599 516.275H106.026V525.272H103.599V516.275Z" fill="#FF884D"/>
<path d="M95.7585 516.275H98.1846V525.272H95.7585V516.275Z" fill="#FF884D"/>
</g>
<g opacity="0.54">
<path d="M131.822 516.271L136.193 525.271H143.718L138.989 516.271H131.822Z" fill="#FFF2BB"/>
<path d="M159.851 516.271L164.15 525.271H167.53L163.391 516.271H159.851Z" fill="#FFF2BB"/>
<path d="M110.519 516.271L116.142 525.271H128.808L122.824 516.271H110.519Z" fill="#FFF2BB"/>
</g>
<path d="M104.849 504.239V513.939C104.849 515.044 105.717 515.941 106.786 515.941H187.076C188.145 515.941 189.013 515.044 189.013 513.939V504.239C189.013 503.133 188.145 502.236 187.076 502.236H106.786C105.717 502.236 104.849 503.133 104.849 504.239Z" fill="#FFC84A"/>
<g opacity="0.8">
<path d="M104.848 504.364H189.014V513.365H104.848V504.364Z" fill="#FF884D"/>
</g>
<g opacity="0.8">
<path d="M181.165 504.365H183.591V513.362H181.165V504.365Z" fill="#FF5C50"/>
<path d="M173.327 504.365H175.753V513.362H173.327V504.365Z" fill="#FF5C50"/>
<path d="M165.485 504.365H167.911V513.362H165.485V504.365Z" fill="#FF5C50"/>
<path d="M157.646 504.365H160.072V513.362H157.646V504.365Z" fill="#FF5C50"/>
<path d="M149.804 504.365H152.23V513.362H149.804V504.365Z" fill="#FF5C50"/>
<path d="M141.966 504.365H144.393V513.362H141.966V504.365Z" fill="#FF5C50"/>
<path d="M134.128 504.365H136.555V513.362H134.128V504.365Z" fill="#FF5C50"/>
<path d="M126.287 504.365H128.713V513.362H126.287V504.365Z" fill="#FF5C50"/>
<path d="M118.449 504.365H120.875V513.362H118.449V504.365Z" fill="#FF5C50"/>
<path d="M110.607 504.365H113.033V513.362H110.607V504.365Z" fill="#FF5C50"/>
</g>
<path d="M216.892 501.216C218.293 507.24 217.972 513.255 216.248 518.757C215.712 520.533 215.005 522.253 214.165 523.909C212.315 527.583 209.794 530.896 206.718 533.681C206.234 534.129 205.733 534.555 205.217 534.975C203.619 536.266 201.903 537.405 200.061 538.382C198.059 539.479 195.91 540.37 193.647 541.024C192.997 541.221 192.33 541.401 191.657 541.556C173.519 545.746 155.404 534.478 151.202 516.392C149.698 509.922 150.168 503.467 152.253 497.643C153.061 495.324 154.132 493.113 155.427 491.039C156.321 489.611 157.312 488.243 158.412 486.983C159.002 486.272 159.629 485.601 160.282 484.958C162.938 482.322 166.051 480.105 169.537 478.46C171.236 477.649 173.035 476.969 174.908 476.452C175.412 476.301 175.925 476.169 176.438 476.052C194.576 471.862 212.69 483.13 216.892 501.216Z" fill="#FCD554"/>
<path d="M205.022 529.724C216.609 518.17 216.609 499.438 205.022 487.884C193.436 476.33 174.65 476.33 163.063 487.884C151.476 499.438 151.476 518.17 163.063 529.724C174.65 541.278 193.436 541.278 205.022 529.724Z" fill="#FF8243"/>
<path d="M203.912 528.617C214.886 517.675 214.886 499.933 203.912 488.991C192.938 478.049 175.147 478.048 164.173 488.991C153.199 499.933 153.199 517.675 164.173 528.617C175.147 539.56 192.938 539.56 203.912 528.617Z" fill="#FFA942"/>
<path d="M193.4 511.643C192.747 510.748 191.85 510.083 190.713 509.643C190.477 509.552 190.468 509.222 190.699 509.113C191.697 508.646 192.487 508.031 193.072 507.268C193.786 506.335 194.163 505.274 194.202 504.083C194.278 501.75 193.515 499.974 191.917 498.755C190.667 497.801 188.948 497.197 186.762 496.939C186.616 496.922 186.506 496.797 186.512 496.648L186.631 492.906C186.637 492.747 186.515 492.616 186.357 492.613L183.951 492.55C183.794 492.545 183.663 492.67 183.659 492.83L183.543 496.486C183.537 496.645 183.406 496.77 183.252 496.766L181.413 496.719C181.256 496.714 181.133 496.583 181.139 496.426L181.255 492.77C181.261 492.611 181.138 492.48 180.981 492.477L178.574 492.414C178.417 492.409 178.287 492.535 178.283 492.694L178.167 496.35C178.161 496.509 178.03 496.634 177.875 496.63L170.728 496.446C170.571 496.441 170.441 496.567 170.437 496.726L170.346 499.563C170.34 499.722 170.462 499.853 170.62 499.856L174.943 499.966C175.1 499.971 175.222 500.102 175.217 500.259L174.628 518.847C174.622 519.006 174.491 519.131 174.336 519.127L170.011 519.016C169.854 519.011 169.723 519.136 169.72 519.295L169.628 522.132C169.622 522.291 169.745 522.423 169.903 522.425L177.05 522.609C177.207 522.614 177.329 522.745 177.324 522.902L177.206 526.619C177.2 526.778 177.323 526.91 177.48 526.912L179.887 526.975C180.044 526.98 180.174 526.855 180.178 526.696L180.296 522.978C180.302 522.819 180.433 522.694 180.588 522.698L182.426 522.745C182.583 522.75 182.706 522.881 182.701 523.038L182.583 526.755C182.577 526.914 182.7 527.046 182.857 527.048L185.263 527.111C185.42 527.116 185.551 526.991 185.555 526.831L185.675 523.068C185.679 522.916 185.802 522.796 185.95 522.788C188.415 522.684 190.376 522.095 191.829 521.019C193.538 519.753 194.431 517.901 194.508 515.462C194.554 513.992 194.186 512.716 193.4 511.643ZM189.402 504.21C189.365 505.377 188.914 506.267 188.051 506.882C187.188 507.497 186.009 507.785 184.513 507.747L180.079 507.634C179.923 507.629 179.8 507.498 179.805 507.341L180.019 500.616C180.025 500.457 180.156 500.332 180.31 500.336L184.705 500.448C186.353 500.49 187.558 500.805 188.319 501.397C189.081 501.988 189.442 502.926 189.402 504.21ZM188.346 518.238C187.473 518.919 186.283 519.239 184.775 519.2L179.713 519.07C179.556 519.065 179.434 518.933 179.439 518.777L179.677 511.232C179.684 511.073 179.814 510.948 179.969 510.952L185.43 511.091C188.369 511.225 189.797 512.641 189.711 515.343C189.675 516.594 189.22 517.557 188.346 518.238Z" fill="#FFEBD3"/>
<g opacity="0.75">
<path d="M210.82 517.315C207.904 526.406 200.402 533.784 190.387 536.098C175.266 539.591 160.179 530.205 156.676 515.127C154.232 504.61 158.065 494.113 165.745 487.546C164.255 492.191 163.963 497.286 165.146 502.379C168.649 517.457 183.736 526.843 198.858 523.35C203.441 522.29 207.485 520.177 210.82 517.315Z" fill="#FF8243" fill-opacity="0.45"/>
</g>
<path d="M1005.01 380.264C1007.15 382.47 1008.17 382.312 1008.17 382.312L1013.39 379.799L1014.03 379.494L1025.19 374.12C1025.19 374.12 1025.19 374.12 1025.19 374.119C1025.19 374.119 1025.19 374.119 1025.19 374.117C1025.23 373.959 1027.16 366.429 1024.27 362.641C1020.8 360.912 1012.94 358.21 1004.42 363.365H1004.42C1003.22 365.004 1003.49 366.646 1004.59 368.049C1004.59 368.049 1004.59 368.049 1004.59 368.047C1004.48 368.068 1001.05 368.686 1001.03 371.726C1001.02 374.816 1002.88 378.063 1005.01 380.264Z" fill="#5B3939"/>
<path d="M1024.87 368.081C1024.87 368.081 1026.79 372.998 1026.05 378.462C1025.32 383.926 1021.53 385.634 1019.96 386.277C1018.4 386.92 1017.04 386.913 1017.04 386.913L1017.65 389.719C1017.65 389.719 1020.73 394.768 1015.35 395.618C1009.97 396.468 1000.84 391.461 1000.84 391.461C1000.84 391.461 1008.85 386.531 1008.69 384.193C1008.54 381.855 1008.08 379.551 1007.56 379.171C1007.03 378.789 1006.16 379.667 1005.15 378.039C1004.13 376.412 1005.71 374.201 1006.89 374.087C1008.06 373.972 1009.55 378.293 1010.07 378.24C1010.59 378.187 1011.41 377.978 1011.11 377.335C1010.8 376.692 1009.97 375.112 1010.2 374.683C1010.43 374.254 1013.08 372.159 1013.97 370.752C1014.85 369.345 1014.95 368.749 1014.95 368.749C1014.95 368.749 1016.49 369.653 1019.9 369.224C1023.31 368.796 1024.87 368.081 1024.87 368.081Z" fill="#F48E76"/>
<path d="M1016.8 387.62C1016.8 387.62 1015.5 387.797 1013.82 386.488C1012.15 385.181 1010.15 381.695 1010.15 381.695C1010.15 381.695 1010.41 384.489 1012.46 387.235C1014.52 389.981 1017.49 390.459 1017.49 390.459L1016.8 387.62Z" fill="#C65252"/>
<path d="M1026.54 366.938C1026.54 366.938 1026.19 356.473 1017.46 355.716C1008.73 354.958 1000.46 358.79 999.243 366.242C998.027 373.696 1001.72 378.948 1003.09 377.857C1004.46 376.766 1009.19 371.482 1014.12 369.287C1019.05 367.092 1026.54 366.938 1026.54 366.938Z" fill="#FFB450"/>
<path d="M1004.1 358.787C1004.1 358.787 1011.8 358.862 1014.38 363.551C1016.96 368.238 1016.96 368.238 1016.96 368.238L1021.92 367.322C1021.92 367.322 1022.81 363.079 1018.83 358.864C1014.86 354.648 1014.77 353.906 1013.02 354.03C1011.26 354.156 1001.89 357.451 1004.1 358.787Z" fill="#FFC84A"/>
<path d="M1026.54 366.939C1026.54 366.939 1030.22 368.782 1029.35 369.363C1028.47 369.945 1008.6 372.858 1008.6 372.858C1008.6 372.858 1015.29 366.233 1026.54 366.939Z" fill="#FF8E55"/>
<path d="M975.771 535.1L971.816 547.392L979.233 551.034L984.92 537.604L975.771 535.1Z" fill="#F48E76"/>
<path d="M1027.51 438.62C1027.51 438.62 1033.62 484.794 1033.87 491.622C1034.12 498.451 1034.86 546.024 1033.87 546.935C1032.88 547.845 1024.23 547.162 1024.47 544.886C1024.72 542.61 1015.33 513.702 1015.82 505.507C1016.32 497.311 1017.06 494.353 1015.82 491.622C1014.59 488.89 1006.43 471.362 1007.17 460.437C1007.91 449.511 1017.2 432.737 1027.51 438.62Z" fill="#2F2159"/>
<path d="M1026.45 443.821C1026.45 443.821 1011.12 495.721 1010.14 498.679C1009.15 501.638 984.92 541.245 983.437 541.473C983.132 541.52 982.567 541.527 981.861 541.48C981.695 541.469 981.522 541.456 981.345 541.437C978.577 541.164 974.354 540.094 974.537 537.376C974.784 533.734 977.009 525.994 982.201 513.702C987.392 501.41 994.562 491.394 994.808 490.939C995.055 490.484 989.617 460.438 991.347 453.153C993.077 445.868 996.785 441.771 996.785 441.771L1009.41 442.642L1022.8 443.566L1026.45 443.821Z" fill="#3D237C"/>
<path d="M998.517 457.934C996.787 469.543 1001.48 486.842 1000.5 491.624C999.506 496.403 989.864 511.428 986.403 520.077C983.188 528.109 976.991 536.336 981.861 541.48C979.14 541.296 974.34 540.269 974.535 537.376C974.782 533.734 977.008 525.994 982.199 513.702C987.39 501.41 994.56 491.394 994.807 490.939C995.053 490.484 989.615 460.438 991.345 453.153C993.075 445.868 996.783 441.771 996.783 441.771L1009.4 442.642C1004.88 446.069 999.488 451.407 998.517 457.934Z" fill="#2F2159"/>
<g opacity="0.58">
<path d="M1026.45 443.82C1026.45 443.82 1011.12 495.719 1010.14 498.677C1009.15 501.636 984.92 541.243 983.437 541.471C983.132 541.518 982.567 541.525 981.861 541.478C981.695 541.467 981.522 541.454 981.345 541.435C988.468 529.662 1003.96 504.166 1007.17 499.815C1010.67 495.074 1019.84 456.341 1022.8 443.566L1026.45 443.82Z" fill="#525FBA"/>
</g>
<path d="M991.189 559.558C991.094 559.974 990.848 560.252 990.358 560.367C989.369 560.595 976.514 554.905 973.546 553.765C970.58 552.627 967.366 551.717 968.108 549.896C968.108 549.896 968.279 549.437 968.569 548.747C969.525 546.45 971.78 541.612 973.302 542.84C975.28 544.434 976.267 545.572 978.988 546.254C981.707 546.937 982.943 546.709 984.18 548.985C985.416 551.261 985.663 553.082 987.641 554.675C989.62 556.268 990.856 556.496 991.103 557.862C991.226 558.556 991.288 559.131 991.189 559.558Z" fill="#3D237C"/>
<path d="M991.189 559.557C991.094 559.973 990.848 560.251 990.358 560.366C989.369 560.594 976.514 554.904 973.546 553.764C970.58 552.626 967.366 551.715 968.108 549.895C968.108 549.895 968.279 549.436 968.569 548.745C969.941 549.729 972.292 551.287 974.538 552.171C977.999 553.536 978.74 553.764 981.461 555.585C983.834 557.178 988.289 559.465 991.189 559.557Z" fill="#9EA8DB"/>
<path d="M985.713 552.245C986.062 552.311 986.213 551.816 985.861 551.75C984.908 551.573 983.972 551.699 983.118 552.13C982.803 552.288 983.085 552.73 983.398 552.572C984.116 552.211 984.91 552.096 985.713 552.245Z" fill="#9EA8DB"/>
<path d="M986.913 553.209C986.004 553.109 985.055 553.079 984.358 553.711C984.103 553.943 984.496 554.306 984.751 554.074C985.331 553.547 986.173 553.642 986.913 553.722C987.267 553.76 987.265 553.248 986.913 553.209Z" fill="#9EA8DB"/>
<path d="M984.048 550.507C984.062 550.526 984.074 550.544 984.089 550.565C984.091 550.642 984.13 550.716 984.216 550.753C984.229 550.774 984.243 550.795 984.255 550.815C984.362 550.994 984.586 550.964 984.702 550.845C985.516 550.971 986.783 551.075 987.112 550.422C987.404 549.843 986.946 549.042 986.285 548.912C985.463 548.752 984.767 549.329 984.136 549.809C983.56 549.258 982.785 548.87 981.941 548.893C981.084 548.916 980.566 549.666 980.827 550.45C981.074 551.195 982.328 551.156 983.003 551.002C983.394 550.913 983.727 550.723 984.048 550.507ZM985.428 549.574C986.244 550.172 986.3 550.437 985.6 550.373C985.253 550.394 984.909 550.37 984.566 550.307C984.539 550.27 984.512 550.234 984.484 550.198C984.706 550.031 985.158 549.583 985.428 549.574ZM981.647 549.796C981.779 549.369 982.063 549.265 982.497 549.484C982.737 549.538 982.96 549.625 983.165 549.743C983.367 549.85 983.542 549.978 983.696 550.119C983.671 550.136 983.644 550.153 983.62 550.168C983.052 550.509 980.808 550.917 981.647 549.796Z" fill="#9EA8DB"/>
<path d="M1024.2 542.125L1026.29 554.801L1034.69 555.198L1033.64 540.816L1024.2 542.125Z" fill="#F48E76"/>
<path d="M1049.44 558.24C1049.55 558.654 1049.45 559.002 1049.06 559.297C1048.27 559.889 1034.01 559.765 1030.8 559.895C1027.59 560.025 1024.26 560.457 1024.09 558.518C1024.09 558.518 1024.03 558.035 1023.98 557.297C1023.78 554.845 1023.6 549.584 1025.54 550.099C1028.06 550.769 1029.48 551.412 1032.26 550.966C1035.04 550.52 1036.05 549.832 1038.22 551.408C1040.39 552.986 1041.45 554.538 1043.98 555.206C1046.51 555.875 1047.73 555.597 1048.58 556.737C1049.01 557.316 1049.34 557.815 1049.44 558.24Z" fill="#3D237C"/>
<path d="M1049.44 558.239C1049.55 558.653 1049.45 559.001 1049.06 559.296C1048.27 559.889 1034.01 559.764 1030.8 559.894C1027.59 560.024 1024.26 560.457 1024.09 558.517C1024.09 558.517 1024.03 558.034 1023.98 557.297C1025.67 557.65 1028.52 558.141 1030.96 558.064C1034.72 557.947 1035.5 557.863 1038.8 558.448C1041.69 558.959 1046.77 559.289 1049.44 558.239Z" fill="#9EA8DB"/>
<path d="M1041.11 553.763C1041.46 553.686 1041.37 553.18 1041.02 553.259C1040.07 553.471 1039.28 553.951 1038.71 554.675C1038.5 554.943 1038.96 555.232 1039.17 554.965C1039.65 554.356 1040.32 553.942 1041.11 553.763Z" fill="#9EA8DB"/>
<path d="M1042.64 554.165C1041.77 554.431 1040.9 554.775 1040.56 555.618C1040.44 555.928 1040.96 556.101 1041.08 555.793C1041.37 555.089 1042.17 554.845 1042.88 554.628C1043.22 554.525 1042.98 554.062 1042.64 554.165Z" fill="#9EA8DB"/>
<path d="M1038.8 552.839C1038.82 552.851 1038.85 552.864 1038.87 552.875C1038.9 552.945 1038.97 552.996 1039.07 552.997C1039.09 553.011 1039.11 553.024 1039.13 553.039C1039.31 553.157 1039.5 553.043 1039.55 552.892C1040.35 552.687 1041.54 552.286 1041.54 551.566C1041.53 550.928 1040.75 550.381 1040.09 550.522C1039.27 550.699 1038.91 551.495 1038.56 552.175C1037.78 551.903 1036.9 551.854 1036.15 552.204C1035.38 552.559 1035.26 553.441 1035.86 554.051C1036.43 554.628 1037.54 554.102 1038.08 553.699C1038.4 553.464 1038.61 553.161 1038.8 552.839ZM1039.62 551.455C1040.64 551.677 1040.81 551.895 1040.15 552.112C1039.84 552.266 1039.52 552.379 1039.18 552.456C1039.14 552.433 1039.1 552.411 1039.05 552.388C1039.18 552.151 1039.38 551.57 1039.62 551.455ZM1036.3 553.135C1036.22 552.697 1036.43 552.491 1036.93 552.52C1037.17 552.475 1037.41 552.467 1037.65 552.493C1037.89 552.512 1038.1 552.559 1038.31 552.627C1038.29 552.651 1038.28 552.678 1038.26 552.7C1037.9 553.231 1036.06 554.478 1036.3 553.135Z" fill="#9EA8DB"/>
<path d="M1050.75 439.757L1042.17 437.177C1042.17 437.177 1032.38 427.183 1031.64 425.916C1031.35 425.417 1030.71 423.641 1030.04 421.67C1029 418.633 1027.9 415.13 1027.9 415.13L1036.81 412.074C1036.81 412.074 1037.31 413.893 1037.94 416.046C1038.79 418.964 1039.85 422.503 1040.18 423.009C1040.74 423.882 1050.59 439.513 1050.75 439.757Z" fill="#F48E76"/>
<path d="M1037.94 416.046C1036.99 417.089 1035.9 418.206 1034.67 419.321C1033.35 420.527 1031.71 421.251 1030.03 421.669C1029 418.631 1027.9 415.129 1027.9 415.129L1036.8 412.072C1036.8 412.074 1037.31 413.893 1037.94 416.046Z" fill="#C65252"/>
<path d="M1037.43 414.299C1037.29 416.994 1028.14 416.411 1028.14 416.411C1028.14 416.411 1028.59 421.215 1028.97 427.061C1029.31 432.386 1029.6 438.58 1029.42 442.787C1029.36 444.179 1029.26 445.353 1029.09 446.209C1028.92 447.063 1028.68 447.599 1028.37 447.715C1025.75 448.69 998.032 448.142 994.71 447.715C991.389 447.288 993.859 446.207 994.4 439.383C994.572 437.18 994.556 434.131 994.451 431.011C994.377 428.793 994.262 426.54 994.136 424.527C993.898 420.59 993.635 417.585 993.635 417.585C993.635 417.585 991.666 421.852 991.37 423.024C991.325 423.212 991.09 423.329 990.726 423.385C988.805 423.699 983.19 422.409 981.346 421.266C980.986 421.042 980.947 420.284 981.146 419.163C981.171 419.035 981.183 418.961 981.183 418.961C982.316 413.085 989.287 398.139 990.854 395.35C992.359 392.664 1000.99 389.355 1004.47 388.106C1005.38 387.785 1005.93 387.598 1005.93 387.598C1005.93 387.598 1005.89 389.434 1007.45 391.415C1009.01 393.397 1014.83 395.626 1016.87 395.13C1018.92 394.635 1017.84 388.65 1017.84 388.65C1017.84 388.65 1018.66 388.979 1019.88 389.472C1023.18 390.8 1029.42 393.318 1030.43 393.779C1031.82 394.411 1037.58 411.603 1037.43 414.299Z" fill="#62D37A"/>
<path d="M998.305 436.87C997.764 437.986 996.409 444.206 998.033 444.499C999.307 444.733 1020.13 445.771 1029.09 446.209C1028.92 447.063 1028.68 447.599 1028.37 447.716C1025.75 448.69 998.034 448.143 994.712 447.716C991.39 447.289 993.86 446.207 994.401 439.383C994.94 432.561 993.638 417.585 993.638 417.585L1000.17 401.792C1000.1 402.11 997.9 412.343 997.9 419.78C997.9 425.714 1019.65 426.85 1028.97 427.063C1029.31 432.388 1029.6 438.582 1029.43 442.79C1021.52 441.004 998.751 435.948 998.305 436.87Z" fill="#40A885"/>
<path d="M1028.14 416.411L1025.7 403.617L1033.11 416.33L1028.14 416.411Z" fill="#40A885"/>
<path d="M1019.01 395.378C1017.51 398.474 1014.83 397.607 1010.09 395.006C1007.07 393.351 1005.34 390.187 1004.47 388.105C1005.38 387.783 1005.93 387.597 1005.93 387.597C1005.93 387.597 1005.89 389.433 1007.45 391.413C1009.01 393.396 1014.83 395.625 1016.87 395.128C1018.92 394.633 1017.84 388.648 1017.84 388.648C1017.84 388.648 1018.66 388.977 1019.88 389.47C1019.92 391.428 1019.78 393.804 1019.01 395.378Z" fill="#D0E286"/>
<path d="M1093.57 461.583L1093.55 461.596C1093.55 461.174 1093.49 460.738 1093.37 460.288C1092.6 457.561 1080.26 451.77 1080.26 451.77L1081.52 447.904C1081.52 447.904 1082.78 448.158 1084.59 448.382C1084.44 449.689 1084.69 450.912 1085.89 451.531C1089.22 453.259 1096 454.328 1093.57 461.583Z" fill="#2F344C"/>
<path d="M1105.66 458.756L1102.59 457.921C1102.47 457.889 1102.4 457.776 1102.44 457.669L1104.45 451.488C1104.48 451.381 1104.61 451.32 1104.72 451.352L1107.8 452.187C1107.91 452.219 1107.98 452.332 1107.95 452.44L1105.93 458.62C1105.9 458.726 1105.78 458.786 1105.66 458.756Z" fill="#2F344C"/>
<path d="M1105.01 448.735C1103.76 462.398 1095.59 472.421 1091.47 476.104C1087.33 479.787 1082.43 483.133 1083.58 481.109C1084.73 479.086 1089.05 474.347 1090.88 469.512C1092.4 465.505 1093.63 463.677 1093.56 461.596C1093.56 461.175 1093.49 460.739 1093.37 460.289C1092.6 457.562 1080.26 451.77 1080.26 451.77L1081.52 447.905C1081.52 447.905 1082.78 448.159 1084.59 448.383C1087.16 448.706 1090.83 448.973 1093.66 448.383C1098.52 447.371 1099.96 443.899 1100.15 439.823C1100.35 435.732 1100.92 430.249 1100.44 427.523C1099.96 424.796 1099.76 423.615 1100.83 424.444C1101.89 425.272 1106.25 435.069 1105.01 448.735Z" fill="#70748D"/>
<path d="M1078.68 451.529L996.265 429.071L997.598 425.036L1080.02 447.493L1078.68 451.529Z" fill="#D0D9DE"/>
<path d="M1080.66 453.462L1078.46 452.864C1078.34 452.832 1078.27 452.719 1078.31 452.612L1080.32 446.431C1080.35 446.324 1080.48 446.264 1080.6 446.296L1082.8 446.894C1082.91 446.926 1082.98 447.039 1082.94 447.146L1080.93 453.327C1080.9 453.434 1080.77 453.494 1080.66 453.462Z" fill="#8389A5"/>
<path d="M1023.2 437.466C1021.38 437.372 1015.9 434.316 1014.53 433.964C1013.15 433.612 1005.46 432.646 1001.85 432.183C1000.43 432 997.573 431.566 994.453 431.009C989.618 430.14 984.153 428.978 982.456 428.005C980.035 426.615 980.858 420.831 981.121 419.323C980.957 420.355 981.008 421.051 981.35 421.266C983.195 422.409 988.809 423.702 990.73 423.386L990.732 423.387L991.312 423.89C991.312 423.89 992.483 424.147 994.14 424.525C996.265 425.011 999.188 425.697 1001.47 426.299C1005.53 427.375 1012.48 429.544 1014.88 429.478C1017.29 429.414 1019.62 429.745 1020.74 430.228C1021.87 430.712 1021.54 431.318 1021.69 432.758C1021.84 434.197 1023.87 436.366 1025.7 436.87C1027.54 437.378 1025.03 437.559 1023.2 437.466Z" fill="#F48E76"/>
<path d="M1043.54 443.568C1043.54 443.568 1042.82 439.511 1048.5 441.163C1054.19 442.814 1056.29 444.469 1054.29 444.881C1052.3 445.293 1045.8 445.314 1043.54 443.568Z" fill="#F48E76"/>
<path d="M1016.79 375.999C1017.22 375.999 1017.57 375.68 1017.57 375.286C1017.57 374.892 1017.22 374.573 1016.79 374.573C1016.36 374.573 1016.01 374.892 1016.01 375.286C1016.01 375.68 1016.36 375.999 1016.79 375.999Z" fill="#604A42"/>
<path d="M1022.57 375.623C1022.73 375.99 1023.18 376.167 1023.58 376.022C1023.98 375.877 1024.18 375.461 1024.02 375.094C1023.86 374.727 1023.41 374.55 1023 374.695C1022.6 374.84 1022.41 375.256 1022.57 375.623Z" fill="#604A42"/>
<path d="M1023.32 381.919C1023.37 381.827 1023.4 381.766 1023.4 381.757C1023.44 381.65 1023.38 381.529 1023.26 381.49C1023.15 381.45 1023.01 381.507 1022.97 381.614C1022.96 381.644 1022.65 382.374 1021.54 382.626C1020.43 382.88 1019 381.667 1018.99 381.654C1018.9 381.575 1018.76 381.578 1018.67 381.661C1018.58 381.746 1018.59 381.876 1018.68 381.955C1018.75 382.011 1020.3 383.337 1021.65 383.029C1022.68 382.797 1023.15 382.207 1023.32 381.919Z" fill="#C65252"/>
<path d="M1015.97 380.125C1016.72 380.112 1017.32 379.664 1017.31 379.126C1017.3 378.586 1016.68 378.16 1015.93 378.174C1015.18 378.187 1014.58 378.635 1014.59 379.173C1014.6 379.711 1015.22 380.138 1015.97 380.125Z" fill="#C65252"/>
<path d="M1024.23 377.509C1023.77 377.677 1023.53 378.096 1023.68 378.448C1023.83 378.8 1024.33 378.951 1024.79 378.783C1025.24 378.616 1025.49 378.196 1025.34 377.844C1025.18 377.492 1024.69 377.342 1024.23 377.509Z" fill="#C65252"/>
<path d="M1020.1 376.315C1020.46 376.864 1020.82 377.415 1021.17 377.965C1021.31 378.177 1021.66 378.516 1021.55 378.775C1021.49 378.935 1020.89 379.191 1020.73 379.293C1020.38 379.511 1020.82 379.957 1021.17 379.74C1021.66 379.43 1022.5 379.135 1022.24 378.467C1022.1 378.094 1021.78 377.72 1021.56 377.382C1021.27 376.934 1020.98 376.488 1020.69 376.04C1020.47 375.709 1019.89 375.98 1020.1 376.315Z" fill="#C65252"/>
<path d="M1015.43 373.938C1015.45 373.682 1016.2 373.227 1016.41 373.114C1016.83 372.888 1017.35 372.777 1017.8 372.986C1018.18 373.157 1018.54 372.657 1018.16 372.486C1017.52 372.19 1016.81 372.23 1016.18 372.544C1015.67 372.796 1014.81 373.34 1014.78 373.913C1014.75 374.297 1015.41 374.325 1015.43 373.938Z" fill="#604A42"/>
<path d="M1022.39 373.003C1023.17 372.763 1023.99 372.909 1024.58 373.451C1024.88 373.724 1025.37 373.325 1025.07 373.052C1024.33 372.37 1023.26 372.108 1022.25 372.417C1021.85 372.539 1021.99 373.126 1022.39 373.003Z" fill="#604A42"/>
<defs>
<linearGradient id="paint0_linear_0_2417" x1="720" y1="0" x2="720" y2="642" gradientUnits="userSpaceOnUse">
<stop stop-color="#C8E8FF" stop-opacity="0.23"/>
<stop offset="0.546875" stop-color="#FFFBF7"/>
<stop offset="0.989583" stop-color="white"/>
</linearGradient>
</defs>
</svg>
